<svg width="40" height="40" viewBox="0 0 40 40" fill="none" xmlns="http://www.w3.org/2000/svg">
<g clip-path="url(#clip0_114_33)">
<path d="M40 20C40 14.6957 37.8929 9.60859 34.1421 5.85786C30.3914 2.10714 25.3043 0 20 0C14.6957 0 9.60859 2.10714 5.85786 5.85786C2.10714 9.60859 0 14.6957 0 20C0 25.3043 2.10714 30.3914 5.85786 34.1421C9.60859 37.8929 14.6957 40 20 40C25.3043 40 30.3914 37.8929 34.1421 34.1421C37.8929 30.3914 40 25.3043 40 20ZM16.9844 29.4453L9.17969 21.0781C8.90625 20.7812 8.75 20.3984 8.75 20C8.75 19.6016 8.90625 19.2109 9.17969 18.9219L16.9844 10.5547C17.3125 10.2031 17.7734 10 18.2578 10C19.2187 10 20 10.7813 20 11.7422V16.25H27.5C28.8828 16.25 30 17.3672 30 18.75V21.25C30 22.6328 28.8828 23.75 27.5 23.75H20V28.2578C20 29.2188 19.2187 30 18.2578 30C17.7734 30 17.3125 29.7969 16.9844 29.4453Z" fill="white"/>
</g>
<defs>
<clipPath id="clip0_114_33">
<rect width="40" height="40" fill="white"/>
</clipPath>
</defs>
</svg>
