<svg width="23" height="23" viewBox="0 0 23 23" fill="none" xmlns="http://www.w3.org/2000/svg">
<g clip-path="url(#clip0_97_21)">
<path d="M21.1852 0.737842C20.2014 -0.245947 18.6111 -0.245947 17.6273 0.737842L16.2752 2.0855L20.673 6.48335L22.0252 5.1312C23.009 4.14741 23.009 2.55718 22.0252 1.57339L21.1852 0.737842ZM7.74453 10.6207C7.47051 10.8947 7.25937 11.2316 7.13809 11.6044L5.8084 15.5935C5.67813 15.9798 5.78145 16.4066 6.06895 16.6986C6.35645 16.9906 6.7832 17.0894 7.17402 16.9591L11.1631 15.6294C11.5314 15.5082 11.8684 15.297 12.1469 15.023L19.6623 7.50308L15.26 3.10073L7.74453 10.6207ZM4.3125 2.63804C1.93164 2.63804 0 4.56968 0 6.95054V18.4505C0 20.8314 1.93164 22.763 4.3125 22.763H15.8125C18.1934 22.763 20.125 20.8314 20.125 18.4505V14.138C20.125 13.3429 19.4826 12.7005 18.6875 12.7005C17.8924 12.7005 17.25 13.3429 17.25 14.138V18.4505C17.25 19.2457 16.6076 19.888 15.8125 19.888H4.3125C3.51738 19.888 2.875 19.2457 2.875 18.4505V6.95054C2.875 6.15542 3.51738 5.51304 4.3125 5.51304H8.625C9.42012 5.51304 10.0625 4.87065 10.0625 4.07554C10.0625 3.28042 9.42012 2.63804 8.625 2.63804H4.3125Z" fill="#564EC1"/>
</g>
<defs>
<clipPath id="clip0_97_21">
<rect width="23" height="23" fill="white"/>
</clipPath>
</defs>
</svg>
