<svg width="60" height="58" viewBox="0 0 60 58" fill="none" xmlns="http://www.w3.org/2000/svg">
<g clip-path="url(#clip0_90_21)">
<path d="M18.127 5.12695L15.8027 2.80273C14.7705 1.77051 13 2.50195 13 3.95801V11.4844C13 12.3936 13.7314 13.125 14.6406 13.125H22.167C23.6299 13.125 24.3613 11.3545 23.3291 10.3223L21.2236 8.2168C23.5957 5.84473 26.877 4.375 30.5 4.375C37.7461 4.375 43.625 10.2539 43.625 17.5C43.625 24.7461 37.7461 30.625 30.5 30.625C27.7109 30.625 25.127 29.7568 23.001 28.2734C22.0098 27.583 20.6494 27.8223 19.9521 28.8135C19.2549 29.8047 19.501 31.165 20.4922 31.8623C23.3359 33.8379 26.7881 35 30.5 35C40.166 35 48 27.166 48 17.5C48 7.83398 40.166 0 30.5 0C25.667 0 21.292 1.96191 18.127 5.12695ZM30.5 8.75C29.5908 8.75 28.8594 9.48145 28.8594 10.3906V17.5C28.8594 17.9375 29.0303 18.3545 29.3379 18.6621L34.2598 23.584C34.9023 24.2266 35.9414 24.2266 36.5771 23.584C37.2129 22.9414 37.2197 21.9023 36.5771 21.2666L32.1338 16.8232V10.3906C32.1338 9.48145 31.4023 8.75 30.4932 8.75H30.5Z" fill="white"/>
</g>
<path d="M0.825639 54V43.0909H5.33203C6.14879 43.0909 6.85369 43.2383 7.44673 43.533C8.04332 43.8242 8.5032 44.2433 8.82635 44.7901C9.1495 45.3335 9.31108 45.978 9.31108 46.7237C9.31108 47.4801 9.14595 48.1229 8.8157 48.652C8.48544 49.1776 8.01669 49.5788 7.40945 49.8558C6.8022 50.1293 6.0831 50.266 5.25213 50.266H2.40234V48.1886H4.76207C5.1598 48.1886 5.49183 48.1371 5.75817 48.0341C6.02805 47.9276 6.23224 47.7678 6.37074 47.5547C6.50923 47.3381 6.57848 47.0611 6.57848 46.7237C6.57848 46.3864 6.50923 46.1076 6.37074 45.8874C6.23224 45.6637 6.02805 45.4968 5.75817 45.3867C5.48828 45.2731 5.15625 45.2163 4.76207 45.2163H3.46236V54H0.825639ZM6.96733 49.0142L9.68395 54H6.80753L4.14418 49.0142H6.96733ZM10.7573 54V45.8182H13.362V54H10.7573ZM12.0623 44.8647C11.6966 44.8647 11.3823 44.744 11.1195 44.5025C10.8567 44.2575 10.7253 43.9627 10.7253 43.6183C10.7253 43.2773 10.8567 42.9862 11.1195 42.7447C11.3823 42.4996 11.6966 42.3771 12.0623 42.3771C12.4316 42.3771 12.7459 42.4996 13.0051 42.7447C13.2679 42.9862 13.3993 43.2773 13.3993 43.6183C13.3993 43.9627 13.2679 44.2575 13.0051 44.5025C12.7459 44.744 12.4316 44.8647 12.0623 44.8647ZM16.5487 54L14.4181 45.8182H17.0335L18.1361 51.0597H18.2053L19.3879 45.8182H21.9394L23.1539 51.0224H23.2231L24.2938 45.8182H26.9092L24.7732 54H21.9873L20.7089 49.2326H20.6183L19.3399 54H16.5487ZM30.261 54.1385C29.739 54.1385 29.2756 54.0515 28.8707 53.8775C28.4695 53.6999 28.1516 53.4336 27.9173 53.0785C27.6864 52.7198 27.571 52.2706 27.571 51.7308C27.571 51.2763 27.6509 50.8928 27.8107 50.5803C27.9705 50.2678 28.1907 50.0138 28.4712 49.8185C28.7518 49.6232 29.0749 49.4759 29.4407 49.3764C29.8065 49.2734 30.1971 49.2042 30.6126 49.1687C31.0778 49.1261 31.4524 49.0817 31.7365 49.0355C32.0206 48.9858 32.2266 48.9165 32.3544 48.8278C32.4858 48.7354 32.5515 48.6058 32.5515 48.4389V48.4123C32.5515 48.1388 32.4574 47.9276 32.2692 47.7784C32.081 47.6293 31.8271 47.5547 31.5075 47.5547C31.163 47.5547 30.886 47.6293 30.6765 47.7784C30.467 47.9276 30.3338 48.1335 30.277 48.3963L27.8746 48.3111C27.9457 47.8139 28.1286 47.37 28.4233 46.9794C28.7216 46.5852 29.13 46.2763 29.6484 46.0526C30.1705 45.8253 30.7972 45.7116 31.5288 45.7116C32.0508 45.7116 32.532 45.7738 32.9723 45.8981C33.4126 46.0188 33.7962 46.1964 34.1229 46.4308C34.4496 46.6616 34.7017 46.9457 34.8793 47.283C35.0604 47.6204 35.1509 48.0057 35.1509 48.4389V54H32.7006V52.8601H32.6367C32.4911 53.1371 32.3047 53.3714 32.0774 53.5632C31.8537 53.755 31.5891 53.8988 31.2837 53.9947C30.9819 54.0906 30.641 54.1385 30.261 54.1385ZM31.0653 52.4339C31.3459 52.4339 31.598 52.3771 31.8217 52.2635C32.049 52.1499 32.2301 51.9936 32.3651 51.7947C32.5 51.5923 32.5675 51.358 32.5675 51.0916V50.3139C32.4929 50.353 32.4023 50.3885 32.2958 50.4205C32.1928 50.4524 32.0792 50.4826 31.9549 50.511C31.8306 50.5394 31.7028 50.5643 31.5714 50.5856C31.44 50.6069 31.3139 50.6264 31.1932 50.6442C30.9482 50.6832 30.7386 50.7436 30.5646 50.8253C30.3942 50.907 30.2628 51.0135 30.1705 51.1449C30.0817 51.2727 30.0373 51.4254 30.0373 51.603C30.0373 51.8729 30.1332 52.0788 30.3249 52.2209C30.5202 52.3629 30.767 52.4339 31.0653 52.4339ZM38.0433 57.0682C37.7308 57.0682 37.4361 57.0433 37.1591 56.9936C36.8821 56.9474 36.6442 56.8853 36.4453 56.8072L37.0206 54.9162C37.2763 55.0014 37.5071 55.0511 37.7131 55.0653C37.9226 55.0795 38.1019 55.0458 38.2511 54.9641C38.4038 54.886 38.521 54.7457 38.6026 54.5433L38.7038 54.2983L35.7955 45.8182H38.5227L40.0302 51.6562H40.1154L41.6442 45.8182H44.3874L41.3033 54.783C41.1541 55.2305 40.9428 55.6246 40.6694 55.9656C40.3995 56.31 40.0497 56.5799 39.62 56.7752C39.1939 56.9705 38.6683 57.0682 38.0433 57.0682ZM47.4729 54.1385C46.9509 54.1385 46.4875 54.0515 46.0827 53.8775C45.6814 53.6999 45.3635 53.4336 45.1292 53.0785C44.8983 52.7198 44.7829 52.2706 44.7829 51.7308C44.7829 51.2763 44.8628 50.8928 45.0226 50.5803C45.1824 50.2678 45.4026 50.0138 45.6831 49.8185C45.9637 49.6232 46.2868 49.4759 46.6526 49.3764C47.0184 49.2734 47.409 49.2042 47.8245 49.1687C48.2897 49.1261 48.6643 49.0817 48.9484 49.0355C49.2325 48.9858 49.4385 48.9165 49.5663 48.8278C49.6977 48.7354 49.7634 48.6058 49.7634 48.4389V48.4123C49.7634 48.1388 49.6693 47.9276 49.4811 47.7784C49.2929 47.6293 49.039 47.5547 48.7194 47.5547C48.3749 47.5547 48.0979 47.6293 47.8884 47.7784C47.6789 47.9276 47.5457 48.1335 47.4889 48.3963L45.0866 48.3111C45.1576 47.8139 45.3405 47.37 45.6352 46.9794C45.9335 46.5852 46.3419 46.2763 46.8604 46.0526C47.3824 45.8253 48.0091 45.7116 48.7407 45.7116C49.2627 45.7116 49.7439 45.7738 50.1842 45.8981C50.6246 46.0188 51.0081 46.1964 51.3348 46.4308C51.6615 46.6616 51.9136 46.9457 52.0912 47.283C52.2723 47.6204 52.3628 48.0057 52.3628 48.4389V54H49.9126V52.8601H49.8486C49.703 53.1371 49.5166 53.3714 49.2893 53.5632C49.0656 53.755 48.801 53.8988 48.4957 53.9947C48.1938 54.0906 47.8529 54.1385 47.4729 54.1385ZM48.2773 52.4339C48.5578 52.4339 48.8099 52.3771 49.0336 52.2635C49.2609 52.1499 49.442 51.9936 49.577 51.7947C49.7119 51.5923 49.7794 51.358 49.7794 51.0916V50.3139C49.7048 50.353 49.6143 50.3885 49.5077 50.4205C49.4047 50.4524 49.2911 50.4826 49.1668 50.511C49.0425 50.5394 48.9147 50.5643 48.7833 50.5856C48.6519 50.6069 48.5258 50.6264 48.4051 50.6442C48.1601 50.6832 47.9506 50.7436 47.7765 50.8253C47.6061 50.907 47.4747 51.0135 47.3824 51.1449C47.2936 51.2727 47.2492 51.4254 47.2492 51.603C47.2492 51.8729 47.3451 52.0788 47.5368 52.2209C47.7322 52.3629 47.979 52.4339 48.2773 52.4339ZM58.5738 45.8182V47.7358H53.4122V45.8182H58.5738ZM54.4935 43.858H57.0983V51.4272C57.0983 51.587 57.1231 51.7166 57.1729 51.8161C57.2261 51.9119 57.3025 51.9812 57.4019 52.0238C57.5013 52.0629 57.6203 52.0824 57.7588 52.0824C57.8582 52.0824 57.963 52.0735 58.0731 52.0558C58.1867 52.0344 58.2719 52.0167 58.3287 52.0025L58.7229 53.8828C58.5986 53.9183 58.4229 53.9627 58.1956 54.016C57.9719 54.0692 57.7037 54.103 57.3912 54.1172C56.7805 54.1456 56.2567 54.0746 55.8199 53.9041C55.3866 53.7301 55.0546 53.4602 54.8238 53.0945C54.5965 52.7287 54.4864 52.2688 54.4935 51.7148V43.858Z" fill="white"/>
<defs>
<clipPath id="clip0_90_21">
<rect width="35" height="35" fill="white" transform="translate(13)"/>
</clipPath>
</defs>
</svg>
