<svg width="60" height="67" viewBox="0 0 60 67" fill="none" xmlns="http://www.w3.org/2000/svg">
<g clip-path="url(#clip0_64_31)">
<path d="M15.8594 5.85938L13.2031 3.20312C12.0234 2.02344 10 2.85938 10 4.52344V13.125C10 14.1641 10.8359 15 11.875 15H20.4766C22.1484 15 22.9844 12.9766 21.8047 11.7969L19.3984 9.39062C22.1094 6.67969 25.8594 5 30 5C38.2812 5 45 11.7188 45 20C45 28.2812 38.2812 35 30 35C26.8125 35 23.8594 34.0078 21.4297 32.3125C20.2969 31.5234 18.7422 31.7969 17.9453 32.9297C17.1484 34.0625 17.4297 35.6172 18.5625 36.4141C21.8125 38.6719 25.7578 40 30 40C41.0469 40 50 31.0469 50 20C50 8.95313 41.0469 0 30 0C24.4766 0 19.4766 2.24219 15.8594 5.85938ZM30 10C28.9609 10 28.125 10.8359 28.125 11.875V20C28.125 20.5 28.3203 20.9766 28.6719 21.3281L34.2969 26.9531C35.0312 27.6875 36.2187 27.6875 36.9453 26.9531C37.6719 26.2188 37.6797 25.0313 36.9453 24.3047L31.8672 19.2266V11.875C31.8672 10.8359 31.0312 10 29.9922 10H30Z" fill="white"/>
</g>
<path d="M0.825639 63V52.0909H5.33203C6.14879 52.0909 6.85369 52.2383 7.44673 52.533C8.04332 52.8242 8.5032 53.2433 8.82635 53.7901C9.1495 54.3335 9.31108 54.978 9.31108 55.7237C9.31108 56.4801 9.14595 57.1229 8.8157 57.652C8.48544 58.1776 8.01669 58.5788 7.40945 58.8558C6.8022 59.1293 6.0831 59.266 5.25213 59.266H2.40234V57.1886H4.76207C5.1598 57.1886 5.49183 57.1371 5.75817 57.0341C6.02805 56.9276 6.23224 56.7678 6.37074 56.5547C6.50923 56.3381 6.57848 56.0611 6.57848 55.7237C6.57848 55.3864 6.50923 55.1076 6.37074 54.8874C6.23224 54.6637 6.02805 54.4968 5.75817 54.3867C5.48828 54.2731 5.15625 54.2163 4.76207 54.2163H3.46236V63H0.825639ZM6.96733 58.0142L9.68395 63H6.80753L4.14418 58.0142H6.96733ZM10.7573 63V54.8182H13.362V63H10.7573ZM12.0623 53.8647C11.6966 53.8647 11.3823 53.744 11.1195 53.5025C10.8567 53.2575 10.7253 52.9627 10.7253 52.6183C10.7253 52.2773 10.8567 51.9862 11.1195 51.7447C11.3823 51.4996 11.6966 51.3771 12.0623 51.3771C12.4316 51.3771 12.7459 51.4996 13.0051 51.7447C13.2679 51.9862 13.3993 52.2773 13.3993 52.6183C13.3993 52.9627 13.2679 53.2575 13.0051 53.5025C12.7459 53.744 12.4316 53.8647 12.0623 53.8647ZM16.5487 63L14.4181 54.8182H17.0335L18.1361 60.0597H18.2053L19.3879 54.8182H21.9394L23.1539 60.0224H23.2231L24.2938 54.8182H26.9092L24.7732 63H21.9873L20.7089 58.2326H20.6183L19.3399 63H16.5487ZM30.261 63.1385C29.739 63.1385 29.2756 63.0515 28.8707 62.8775C28.4695 62.6999 28.1516 62.4336 27.9173 62.0785C27.6864 61.7198 27.571 61.2706 27.571 60.7308C27.571 60.2763 27.6509 59.8928 27.8107 59.5803C27.9705 59.2678 28.1907 59.0138 28.4712 58.8185C28.7518 58.6232 29.0749 58.4759 29.4407 58.3764C29.8065 58.2734 30.1971 58.2042 30.6126 58.1687C31.0778 58.1261 31.4524 58.0817 31.7365 58.0355C32.0206 57.9858 32.2266 57.9165 32.3544 57.8278C32.4858 57.7354 32.5515 57.6058 32.5515 57.4389V57.4123C32.5515 57.1388 32.4574 56.9276 32.2692 56.7784C32.081 56.6293 31.8271 56.5547 31.5075 56.5547C31.163 56.5547 30.886 56.6293 30.6765 56.7784C30.467 56.9276 30.3338 57.1335 30.277 57.3963L27.8746 57.3111C27.9457 56.8139 28.1286 56.37 28.4233 55.9794C28.7216 55.5852 29.13 55.2763 29.6484 55.0526C30.1705 54.8253 30.7972 54.7116 31.5288 54.7116C32.0508 54.7116 32.532 54.7738 32.9723 54.8981C33.4126 55.0188 33.7962 55.1964 34.1229 55.4308C34.4496 55.6616 34.7017 55.9457 34.8793 56.283C35.0604 56.6204 35.1509 57.0057 35.1509 57.4389V63H32.7006V61.8601H32.6367C32.4911 62.1371 32.3047 62.3714 32.0774 62.5632C31.8537 62.755 31.5891 62.8988 31.2837 62.9947C30.9819 63.0906 30.641 63.1385 30.261 63.1385ZM31.0653 61.4339C31.3459 61.4339 31.598 61.3771 31.8217 61.2635C32.049 61.1499 32.2301 60.9936 32.3651 60.7947C32.5 60.5923 32.5675 60.358 32.5675 60.0916V59.3139C32.4929 59.353 32.4023 59.3885 32.2958 59.4205C32.1928 59.4524 32.0792 59.4826 31.9549 59.511C31.8306 59.5394 31.7028 59.5643 31.5714 59.5856C31.44 59.6069 31.3139 59.6264 31.1932 59.6442C30.9482 59.6832 30.7386 59.7436 30.5646 59.8253C30.3942 59.907 30.2628 60.0135 30.1705 60.1449C30.0817 60.2727 30.0373 60.4254 30.0373 60.603C30.0373 60.8729 30.1332 61.0788 30.3249 61.2209C30.5202 61.3629 30.767 61.4339 31.0653 61.4339ZM38.0433 66.0682C37.7308 66.0682 37.4361 66.0433 37.1591 65.9936C36.8821 65.9474 36.6442 65.8853 36.4453 65.8072L37.0206 63.9162C37.2763 64.0014 37.5071 64.0511 37.7131 64.0653C37.9226 64.0795 38.1019 64.0458 38.2511 63.9641C38.4038 63.886 38.521 63.7457 38.6026 63.5433L38.7038 63.2983L35.7955 54.8182H38.5227L40.0302 60.6562H40.1154L41.6442 54.8182H44.3874L41.3033 63.783C41.1541 64.2305 40.9428 64.6246 40.6694 64.9656C40.3995 65.31 40.0497 65.5799 39.62 65.7752C39.1939 65.9705 38.6683 66.0682 38.0433 66.0682ZM47.4729 63.1385C46.9509 63.1385 46.4875 63.0515 46.0827 62.8775C45.6814 62.6999 45.3635 62.4336 45.1292 62.0785C44.8983 61.7198 44.7829 61.2706 44.7829 60.7308C44.7829 60.2763 44.8628 59.8928 45.0226 59.5803C45.1824 59.2678 45.4026 59.0138 45.6831 58.8185C45.9637 58.6232 46.2868 58.4759 46.6526 58.3764C47.0184 58.2734 47.409 58.2042 47.8245 58.1687C48.2897 58.1261 48.6643 58.0817 48.9484 58.0355C49.2325 57.9858 49.4385 57.9165 49.5663 57.8278C49.6977 57.7354 49.7634 57.6058 49.7634 57.4389V57.4123C49.7634 57.1388 49.6693 56.9276 49.4811 56.7784C49.2929 56.6293 49.039 56.5547 48.7194 56.5547C48.3749 56.5547 48.0979 56.6293 47.8884 56.7784C47.6789 56.9276 47.5457 57.1335 47.4889 57.3963L45.0866 57.3111C45.1576 56.8139 45.3405 56.37 45.6352 55.9794C45.9335 55.5852 46.3419 55.2763 46.8604 55.0526C47.3824 54.8253 48.0091 54.7116 48.7407 54.7116C49.2627 54.7116 49.7439 54.7738 50.1842 54.8981C50.6246 55.0188 51.0081 55.1964 51.3348 55.4308C51.6615 55.6616 51.9136 55.9457 52.0912 56.283C52.2723 56.6204 52.3628 57.0057 52.3628 57.4389V63H49.9126V61.8601H49.8486C49.703 62.1371 49.5166 62.3714 49.2893 62.5632C49.0656 62.755 48.801 62.8988 48.4957 62.9947C48.1938 63.0906 47.8529 63.1385 47.4729 63.1385ZM48.2773 61.4339C48.5578 61.4339 48.8099 61.3771 49.0336 61.2635C49.2609 61.1499 49.442 60.9936 49.577 60.7947C49.7119 60.5923 49.7794 60.358 49.7794 60.0916V59.3139C49.7048 59.353 49.6143 59.3885 49.5077 59.4205C49.4047 59.4524 49.2911 59.4826 49.1668 59.511C49.0425 59.5394 48.9147 59.5643 48.7833 59.5856C48.6519 59.6069 48.5258 59.6264 48.4051 59.6442C48.1601 59.6832 47.9506 59.7436 47.7765 59.8253C47.6061 59.907 47.4747 60.0135 47.3824 60.1449C47.2936 60.2727 47.2492 60.4254 47.2492 60.603C47.2492 60.8729 47.3451 61.0788 47.5368 61.2209C47.7322 61.3629 47.979 61.4339 48.2773 61.4339ZM58.5738 54.8182V56.7358H53.4122V54.8182H58.5738ZM54.4935 52.858H57.0983V60.4272C57.0983 60.587 57.1231 60.7166 57.1729 60.8161C57.2261 60.9119 57.3025 60.9812 57.4019 61.0238C57.5013 61.0629 57.6203 61.0824 57.7588 61.0824C57.8582 61.0824 57.963 61.0735 58.0731 61.0558C58.1867 61.0344 58.2719 61.0167 58.3287 61.0025L58.7229 62.8828C58.5986 62.9183 58.4229 62.9627 58.1956 63.016C57.9719 63.0692 57.7037 63.103 57.3912 63.1172C56.7805 63.1456 56.2567 63.0746 55.8199 62.9041C55.3866 62.7301 55.0546 62.4602 54.8238 62.0945C54.5965 61.7287 54.4864 61.2688 54.4935 60.7148V52.858Z" fill="white"/>
<defs>
<clipPath id="clip0_64_31">
<rect width="40" height="40" fill="white" transform="translate(10)"/>
</clipPath>
</defs>
</svg>
