<svg width="58" height="74" viewBox="0 0 58 74" fill="none" xmlns="http://www.w3.org/2000/svg">
<path d="M11.9048 27.217C11.9048 26.1332 11.9048 25.5913 12.1555 25.139C12.4062 24.6866 12.8657 24.3994 13.7848 23.825L27.5114 15.2458C28.0269 14.9237 28.2846 14.7626 28.5714 14.7626C28.8582 14.7626 29.116 14.9237 29.6314 15.2458L43.3581 23.825C44.2771 24.3994 44.7367 24.6866 44.9874 25.139C45.2381 25.5913 45.2381 26.1332 45.2381 27.217V41.75C45.2381 42.6928 45.2381 43.1642 44.9452 43.4571C44.6523 43.75 44.1809 43.75 43.2381 43.75H13.9048C12.9619 43.75 12.4905 43.75 12.1976 43.4571C11.9048 43.1642 11.9048 42.6928 11.9048 41.75V27.217Z" fill="white"/>
<path d="M7.14285 26.5163C7.14285 26.7655 7.14285 26.8902 7.22271 26.9324C7.30256 26.9747 7.40559 26.9045 7.61164 26.7643L27.4462 13.2658C27.991 12.895 28.2634 12.7096 28.5714 12.7096C28.8794 12.7096 29.1518 12.895 29.6967 13.2658L49.5312 26.7643C49.7373 26.9045 49.8403 26.9747 49.9201 26.9324C50 26.8902 50 26.7655 50 26.5163V23.9748C50 23.4566 50 23.1975 49.8839 22.9781C49.7678 22.7587 49.5536 22.6129 49.1252 22.3214L29.6967 9.09914C29.1518 8.72835 28.8794 8.54295 28.5714 8.54295C28.2634 8.54295 27.991 8.72835 27.4462 9.09914L8.0176 22.3214C7.58921 22.6129 7.37502 22.7587 7.25893 22.9781C7.14285 23.1975 7.14285 23.4566 7.14285 23.9748V26.5163Z" fill="white"/>
<path d="M32.5238 31.25H24.619C23.5145 31.25 22.619 32.1454 22.619 33.25V43.6C22.619 43.6828 22.6862 43.75 22.769 43.75H34.3738C34.4567 43.75 34.5238 43.6828 34.5238 43.6V33.25C34.5238 32.1454 33.6284 31.25 32.5238 31.25Z" fill="#564EC1"/>
<rect x="38.0952" y="10.4167" width="4.7619" height="8.33333" rx="0.5" fill="white"/>
<path d="M7.82564 70V59.0909H10.4624V63.4695H14.761V59.0909H17.3924V70H14.761V65.6161H10.4624V70H7.82564ZM22.8656 70.1545C22.0062 70.1545 21.2676 69.9787 20.6497 69.6271C20.0353 69.272 19.5613 68.7784 19.2275 68.1463C18.8972 67.5107 18.7321 66.7738 18.7321 65.9357C18.7321 65.0941 18.8972 64.3572 19.2275 63.7251C19.5613 63.0895 20.0353 62.5959 20.6497 62.2443C21.2676 61.8892 22.0062 61.7116 22.8656 61.7116C23.725 61.7116 24.4618 61.8892 25.0762 62.2443C25.6941 62.5959 26.1681 63.0895 26.4984 63.7251C26.8322 64.3572 26.9991 65.0941 26.9991 65.9357C26.9991 66.7738 26.8322 67.5107 26.4984 68.1463C26.1681 68.7784 25.6941 69.272 25.0762 69.6271C24.4618 69.9787 23.725 70.1545 22.8656 70.1545ZM22.8816 68.1889C23.1941 68.1889 23.4586 68.093 23.6752 67.9013C23.8919 67.7095 24.057 67.4432 24.1706 67.1023C24.2878 66.7614 24.3464 66.3672 24.3464 65.9197C24.3464 65.4652 24.2878 65.0675 24.1706 64.7266C24.057 64.3857 23.8919 64.1193 23.6752 63.9276C23.4586 63.7358 23.1941 63.6399 22.8816 63.6399C22.5584 63.6399 22.285 63.7358 22.0613 63.9276C21.8411 64.1193 21.6724 64.3857 21.5552 64.7266C21.4416 65.0675 21.3848 65.4652 21.3848 65.9197C21.3848 66.3672 21.4416 66.7614 21.5552 67.1023C21.6724 67.4432 21.8411 67.7095 22.0613 67.9013C22.285 68.093 22.5584 68.1889 22.8816 68.1889ZM28.3335 70V61.8182H30.8104V63.3203H30.9009C31.0714 62.8232 31.359 62.4308 31.7638 62.1431C32.1687 61.8555 32.6516 61.7116 33.2127 61.7116C33.7809 61.7116 34.2674 61.8572 34.6722 62.1484C35.0771 62.4396 35.3345 62.8303 35.4446 63.3203H35.5298C35.6825 62.8338 35.9808 62.445 36.4247 62.1538C36.8686 61.859 37.3924 61.7116 37.9961 61.7116C38.7702 61.7116 39.3988 61.9602 39.8817 62.4574C40.3647 62.951 40.6062 63.6293 40.6062 64.4922V70H38.0014V65.0888C38.0014 64.6804 37.8967 64.3697 37.6871 64.1566C37.4776 63.94 37.206 63.8317 36.8722 63.8317C36.5135 63.8317 36.2312 63.9489 36.0252 64.1832C35.8228 64.4141 35.7216 64.7248 35.7216 65.1154V70H33.218V65.0621C33.218 64.6822 33.1151 64.3821 32.9091 64.1619C32.7031 63.9418 32.4315 63.8317 32.0941 63.8317C31.8668 63.8317 31.6662 63.8867 31.4922 63.9968C31.3182 64.1033 31.1815 64.256 31.082 64.4549C30.9862 64.6538 30.9382 64.8881 30.9382 65.158V70H28.3335ZM46.0447 70.1545C45.1889 70.1545 44.4503 69.9858 43.8288 69.6484C43.2109 69.3075 42.7351 68.8228 42.4013 68.1942C42.071 67.5621 41.9059 66.8111 41.9059 65.9411C41.9059 65.0959 42.0728 64.3572 42.4066 63.7251C42.7404 63.0895 43.2109 62.5959 43.8182 62.2443C44.4254 61.8892 45.141 61.7116 45.9648 61.7116C46.5472 61.7116 47.0799 61.8022 47.5629 61.9833C48.0458 62.1644 48.4631 62.4325 48.8146 62.7876C49.1662 63.1428 49.4396 63.5813 49.6349 64.1033C49.8303 64.6218 49.9279 65.2166 49.9279 65.8878V66.5376H42.8168V65.0249H47.5043C47.5007 64.7479 47.435 64.5011 47.3072 64.2844C47.1793 64.0678 47.0036 63.8991 46.7798 63.7784C46.5597 63.6541 46.3058 63.592 46.0181 63.592C45.7269 63.592 45.4659 63.6577 45.2351 63.7891C45.0043 63.9169 44.8214 64.0927 44.6864 64.3164C44.5515 64.5366 44.4805 64.7869 44.4734 65.0675V66.6069C44.4734 66.9407 44.5391 67.2337 44.6705 67.4858C44.8018 67.7344 44.9883 67.9279 45.2298 68.0664C45.4712 68.2049 45.7589 68.2741 46.0927 68.2741C46.3235 68.2741 46.533 68.2422 46.7212 68.1783C46.9094 68.1143 47.071 68.0202 47.206 67.896C47.3409 67.7717 47.4421 67.619 47.5096 67.4379L49.9013 67.5071C49.8018 68.0433 49.5835 68.5103 49.2461 68.908C48.9123 69.3022 48.4737 69.6094 47.9304 69.8295C47.3871 70.0462 46.7585 70.1545 46.0447 70.1545Z" fill="white"/>
</svg>
