<svg width="60" height="69" viewBox="0 0 60 69" fill="none" xmlns="http://www.w3.org/2000/svg">
<path d="M12.381 28.217C12.381 27.1332 12.381 26.5913 12.6317 26.1389C12.8824 25.6866 13.3419 25.3994 14.261 24.825L28.6543 15.8292C29.1698 15.507 29.4275 15.3459 29.7143 15.3459C30.0011 15.3459 30.2588 15.507 30.7743 15.8292L45.1676 24.825C46.0867 25.3994 46.5462 25.6866 46.7969 26.1389C47.0476 26.5913 47.0476 27.1332 47.0476 28.217V43.5C47.0476 44.4428 47.0476 44.9142 46.7548 45.2071C46.4619 45.5 45.9905 45.5 45.0476 45.5H14.381C13.4382 45.5 12.9668 45.5 12.6739 45.2071C12.381 44.9142 12.381 44.4428 12.381 43.5V28.217Z" fill="white"/>
<path d="M7.42859 27.5996C7.42859 27.8489 7.42859 27.9735 7.50844 28.0157C7.5883 28.058 7.69132 27.9879 7.89738 27.8476L28.5891 13.7658C29.1339 13.395 29.4063 13.2096 29.7143 13.2096C30.0223 13.2096 30.2947 13.395 30.8396 13.7658L51.5312 27.8476C51.7373 27.9879 51.8403 28.058 51.9202 28.0157C52 27.9735 52 27.8489 52 27.5996V24.8914C52 24.3732 52 24.1142 51.8839 23.8947C51.7679 23.6753 51.5537 23.5296 51.1253 23.238L30.8396 9.43245C30.2947 9.06166 30.0223 8.87627 29.7143 8.87627C29.4063 8.87627 29.1339 9.06166 28.5891 9.43245L8.30334 23.238C7.87495 23.5296 7.66075 23.6753 7.54467 23.8947C7.42859 24.1142 7.42859 24.3732 7.42859 24.8914V27.5996Z" fill="white"/>
<path d="M33.9048 32.5H25.5238C24.4192 32.5 23.5238 33.3954 23.5238 34.5V45.35C23.5238 45.4328 23.591 45.5 23.6738 45.5H35.7548C35.8376 45.5 35.9048 45.4328 35.9048 45.35V34.5C35.9048 33.3954 35.0093 32.5 33.9048 32.5Z" fill="#564EC1"/>
<rect x="39.619" y="10.8333" width="4.95238" height="8.66667" rx="0.5" fill="white"/>
<path d="M8.82564 65V54.0909H11.4624V58.4695H15.761V54.0909H18.3924V65H15.761V60.6161H11.4624V65H8.82564ZM23.8656 65.1545C23.0062 65.1545 22.2676 64.9787 21.6497 64.6271C21.0353 64.272 20.5613 63.7784 20.2275 63.1463C19.8972 62.5107 19.7321 61.7738 19.7321 60.9357C19.7321 60.0941 19.8972 59.3572 20.2275 58.7251C20.5613 58.0895 21.0353 57.5959 21.6497 57.2443C22.2676 56.8892 23.0062 56.7116 23.8656 56.7116C24.725 56.7116 25.4618 56.8892 26.0762 57.2443C26.6941 57.5959 27.1681 58.0895 27.4984 58.7251C27.8322 59.3572 27.9991 60.0941 27.9991 60.9357C27.9991 61.7738 27.8322 62.5107 27.4984 63.1463C27.1681 63.7784 26.6941 64.272 26.0762 64.6271C25.4618 64.9787 24.725 65.1545 23.8656 65.1545ZM23.8816 63.1889C24.1941 63.1889 24.4586 63.093 24.6752 62.9013C24.8919 62.7095 25.057 62.4432 25.1706 62.1023C25.2878 61.7614 25.3464 61.3672 25.3464 60.9197C25.3464 60.4652 25.2878 60.0675 25.1706 59.7266C25.057 59.3857 24.8919 59.1193 24.6752 58.9276C24.4586 58.7358 24.1941 58.6399 23.8816 58.6399C23.5584 58.6399 23.285 58.7358 23.0613 58.9276C22.8411 59.1193 22.6724 59.3857 22.5552 59.7266C22.4416 60.0675 22.3848 60.4652 22.3848 60.9197C22.3848 61.3672 22.4416 61.7614 22.5552 62.1023C22.6724 62.4432 22.8411 62.7095 23.0613 62.9013C23.285 63.093 23.5584 63.1889 23.8816 63.1889ZM29.3335 65V56.8182H31.8104V58.3203H31.9009C32.0714 57.8232 32.359 57.4308 32.7638 57.1431C33.1687 56.8555 33.6516 56.7116 34.2127 56.7116C34.7809 56.7116 35.2674 56.8572 35.6722 57.1484C36.0771 57.4396 36.3345 57.8303 36.4446 58.3203H36.5298C36.6825 57.8338 36.9808 57.445 37.4247 57.1538C37.8686 56.859 38.3924 56.7116 38.9961 56.7116C39.7702 56.7116 40.3988 56.9602 40.8817 57.4574C41.3647 57.951 41.6062 58.6293 41.6062 59.4922V65H39.0014V60.0888C39.0014 59.6804 38.8967 59.3697 38.6871 59.1566C38.4776 58.94 38.206 58.8317 37.8722 58.8317C37.5135 58.8317 37.2312 58.9489 37.0252 59.1832C36.8228 59.4141 36.7216 59.7248 36.7216 60.1154V65H34.218V60.0621C34.218 59.6822 34.1151 59.3821 33.9091 59.1619C33.7031 58.9418 33.4315 58.8317 33.0941 58.8317C32.8668 58.8317 32.6662 58.8867 32.4922 58.9968C32.3182 59.1033 32.1815 59.256 32.082 59.4549C31.9862 59.6538 31.9382 59.8881 31.9382 60.158V65H29.3335ZM47.0447 65.1545C46.1889 65.1545 45.4503 64.9858 44.8288 64.6484C44.2109 64.3075 43.7351 63.8228 43.4013 63.1942C43.071 62.5621 42.9059 61.8111 42.9059 60.9411C42.9059 60.0959 43.0728 59.3572 43.4066 58.7251C43.7404 58.0895 44.2109 57.5959 44.8182 57.2443C45.4254 56.8892 46.141 56.7116 46.9648 56.7116C47.5472 56.7116 48.0799 56.8022 48.5629 56.9833C49.0458 57.1644 49.4631 57.4325 49.8146 57.7876C50.1662 58.1428 50.4396 58.5813 50.6349 59.1033C50.8303 59.6218 50.9279 60.2166 50.9279 60.8878V61.5376H43.8168V60.0249H48.5043C48.5007 59.7479 48.435 59.5011 48.3072 59.2844C48.1793 59.0678 48.0036 58.8991 47.7798 58.7784C47.5597 58.6541 47.3058 58.592 47.0181 58.592C46.7269 58.592 46.4659 58.6577 46.2351 58.7891C46.0043 58.9169 45.8214 59.0927 45.6864 59.3164C45.5515 59.5366 45.4805 59.7869 45.4734 60.0675V61.6069C45.4734 61.9407 45.5391 62.2337 45.6705 62.4858C45.8018 62.7344 45.9883 62.9279 46.2298 63.0664C46.4712 63.2049 46.7589 63.2741 47.0927 63.2741C47.3235 63.2741 47.533 63.2422 47.7212 63.1783C47.9094 63.1143 48.071 63.0202 48.206 62.896C48.3409 62.7717 48.4421 62.619 48.5096 62.4379L50.9013 62.5071C50.8018 63.0433 50.5835 63.5103 50.2461 63.908C49.9123 64.3022 49.4737 64.6094 48.9304 64.8295C48.3871 65.0462 47.7585 65.1545 47.0447 65.1545Z" fill="white"/>
</svg>
