<svg width="25" height="25" viewBox="0 0 25 25" fill="none" xmlns="http://www.w3.org/2000/svg">
<path d="M18.4521 4.12388L24.4482 10.9766C24.7998 11.3783 25 11.9308 25 12.5C25 13.0692 24.7998 13.6216 24.4482 14.0234L18.4521 20.8761C18.1396 21.2333 17.7197 21.4286 17.2803 21.4286C16.3672 21.4286 15.625 20.5804 15.625 19.5368V16.0714H9.375C8.51074 16.0714 7.8125 15.2734 7.8125 14.2857V10.7143C7.8125 9.72656 8.51074 8.92857 9.375 8.92857H15.625V5.46317C15.625 4.41964 16.3672 3.57143 17.2803 3.57143C17.7197 3.57143 18.1396 3.77232 18.4521 4.12388ZM7.8125 3.57143H4.6875C3.82324 3.57143 3.125 4.36942 3.125 5.35714V19.6429C3.125 20.6306 3.82324 21.4286 4.6875 21.4286H7.8125C8.67676 21.4286 9.375 22.2266 9.375 23.2143C9.375 24.202 8.67676 25 7.8125 25H4.6875C2.09961 25 0 22.6004 0 19.6429V5.35714C0 2.39955 2.09961 0 4.6875 0H7.8125C8.67676 0 9.375 0.797991 9.375 1.78571C9.375 2.77344 8.67676 3.57143 7.8125 3.57143Z" fill="#F20202"/>
</svg>
