<svg width="356" height="230" viewBox="0 0 356 230" fill="none" xmlns="http://www.w3.org/2000/svg">
<g clip-path="url(#clip0_109_41)">
<path d="M346.87 209.117C345.253 209.692 343.516 209.836 341.827 209.535C340.138 209.234 338.555 208.498 337.229 207.398C333.852 204.529 332.793 199.805 331.931 195.429L329.383 182.486L334.718 186.204C338.555 188.877 342.478 191.636 345.134 195.508C347.79 199.381 348.949 204.667 346.815 208.857" fill="#E6E6E6"/>
<path d="M346.047 225.688C346.718 220.737 347.409 215.722 346.937 210.719C346.518 206.275 345.179 201.935 342.451 198.375C341.004 196.49 339.242 194.874 337.246 193.601C336.725 193.269 336.246 194.104 336.764 194.435C340.218 196.644 342.89 199.906 344.394 203.751C346.056 208.027 346.322 212.688 346.036 217.23C345.863 219.976 345.496 222.705 345.127 225.431C345.097 225.554 345.116 225.684 345.177 225.794C345.239 225.904 345.34 225.986 345.46 226.024C345.582 226.057 345.712 226.041 345.821 225.978C345.931 225.914 346.012 225.81 346.046 225.687L346.047 225.688Z" fill="#F2F2F2"/>
<path d="M341.214 217.744C340.52 218.811 339.566 219.68 338.445 220.266C337.323 220.852 336.071 221.136 334.809 221.09C331.566 220.934 328.864 218.645 326.432 216.47L319.235 210.04L323.998 209.81C327.423 209.644 330.936 209.488 334.199 210.558C337.461 211.628 340.469 214.2 341.066 217.617" fill="#E6E6E6"/>
<path d="M347.945 228.533C344.712 222.745 340.963 216.312 334.263 214.256C332.4 213.686 330.447 213.482 328.508 213.654C327.897 213.708 328.05 214.661 328.66 214.608C331.909 214.335 335.152 215.203 337.843 217.066C340.433 218.85 342.449 221.33 344.155 223.96C345.201 225.571 346.137 227.25 347.073 228.927C347.372 229.463 348.247 229.076 347.945 228.533Z" fill="#F2F2F2"/>
<path d="M219.428 6.08539H0.0935059V111.413H219.428V6.08539Z" fill="#E6E6E6"/>
<path d="M213.157 15.1174H6.36548V102.996H213.157V15.1174Z" fill="white"/>
<path d="M219.335 0H0V9.42985H219.335V0Z" fill="#6C63FF"/>
<path d="M6.92432 7.29276C7.87815 7.29276 8.65138 6.51025 8.65138 5.54497C8.65138 4.57969 7.87815 3.79718 6.92432 3.79718C5.9705 3.79718 5.19727 4.57969 5.19727 5.54497C5.19727 6.51025 5.9705 7.29276 6.92432 7.29276Z" fill="white"/>
<path d="M13.4797 7.29276C14.4336 7.29276 15.2068 6.51025 15.2068 5.54497C15.2068 4.57969 14.4336 3.79718 13.4797 3.79718C12.5259 3.79718 11.7527 4.57969 11.7527 5.54497C11.7527 6.51025 12.5259 7.29276 13.4797 7.29276Z" fill="white"/>
<path d="M20.0354 7.29276C20.9892 7.29276 21.7625 6.51025 21.7625 5.54497C21.7625 4.57969 20.9892 3.79718 20.0354 3.79718C19.0816 3.79718 18.3083 4.57969 18.3083 5.54497C18.3083 6.51025 19.0816 7.29276 20.0354 7.29276Z" fill="white"/>
<path d="M203.006 85.1974H100.473C100.388 85.1974 100.307 85.1632 100.246 85.1023C100.186 85.0414 100.152 84.9588 100.152 84.8727V35.1389C100.152 35.0527 100.186 34.9702 100.246 34.9093C100.307 34.8484 100.388 34.8141 100.473 34.8141C100.558 34.8141 100.64 34.8484 100.7 34.9093C100.76 34.9702 100.794 35.0527 100.794 35.1389V84.548H203.006C203.091 84.548 203.173 84.5822 203.233 84.6431C203.293 84.704 203.327 84.7866 203.327 84.8727C203.327 84.9588 203.293 85.0414 203.233 85.1023C203.173 85.1632 203.091 85.1974 203.006 85.1974Z" fill="#3F3D56"/>
<path d="M122.38 81.6254H113.054C112.802 81.6251 112.56 81.5234 112.381 81.3427C112.203 81.162 112.102 80.917 112.102 80.6615V67.6516C112.102 67.396 112.203 67.151 112.381 66.9703C112.56 66.7896 112.802 66.688 113.054 66.6877H122.38C122.633 66.688 122.875 66.7896 123.053 66.9703C123.232 67.151 123.332 67.396 123.333 67.6516V80.6615C123.332 80.917 123.232 81.162 123.053 81.3427C122.875 81.5234 122.633 81.6251 122.38 81.6254Z" fill="#6C63FF"/>
<path d="M139.387 81.6254H130.061C129.808 81.6251 129.566 81.5234 129.388 81.3427C129.209 81.162 129.109 80.917 129.108 80.6615V55.3117C129.109 55.0562 129.209 54.8112 129.388 54.6305C129.566 54.4498 129.808 54.3481 130.061 54.3478H139.387C139.639 54.3481 139.881 54.4498 140.06 54.6305C140.238 54.8112 140.339 55.0562 140.339 55.3117V80.6615C140.339 80.917 140.238 81.162 140.06 81.3427C139.881 81.5234 139.639 81.6251 139.387 81.6254Z" fill="#6C63FF"/>
<path d="M156.394 81.6254H147.068C146.815 81.6251 146.573 81.5234 146.395 81.3427C146.216 81.162 146.116 80.917 146.115 80.6615V67.6516C146.116 67.396 146.216 67.151 146.395 66.9703C146.573 66.7896 146.815 66.688 147.068 66.6877H156.394C156.646 66.688 156.888 66.7896 157.067 66.9703C157.245 67.151 157.346 67.396 157.346 67.6516V80.6615C157.346 80.917 157.245 81.162 157.067 81.3427C156.888 81.5234 156.646 81.6251 156.394 81.6254Z" fill="#6C63FF"/>
<path d="M173.4 81.6254H164.074C163.828 81.6308 163.589 81.5369 163.41 81.3644C163.232 81.1919 163.128 80.9549 163.122 80.7052V50.3971C163.128 50.1474 163.232 49.9103 163.41 49.7378C163.589 49.5653 163.828 49.4715 164.074 49.4769H173.4C173.647 49.4715 173.886 49.5653 174.064 49.7378C174.243 49.9103 174.347 50.1474 174.353 50.3971V80.7052C174.347 80.9549 174.243 81.1919 174.064 81.3644C173.886 81.5369 173.647 81.6308 173.4 81.6254Z" fill="#6C63FF"/>
<path d="M190.407 81.6254H181.081C180.828 81.6251 180.586 81.5234 180.408 81.3427C180.229 81.162 180.129 80.917 180.128 80.6615V41.673C180.129 41.4174 180.229 41.1724 180.408 40.9917C180.586 40.811 180.828 40.7094 181.081 40.7091H190.407C190.659 40.7094 190.901 40.811 191.08 40.9917C191.258 41.1724 191.359 41.4174 191.359 41.673V80.6615C191.359 80.917 191.258 81.162 191.08 81.3427C190.901 81.5234 190.659 81.6251 190.407 81.6254Z" fill="#6C63FF"/>
<path d="M117.717 62.7909C118.781 62.7909 119.643 61.9186 119.643 60.8425C119.643 59.7664 118.781 58.8941 117.717 58.8941C116.654 58.8941 115.792 59.7664 115.792 60.8425C115.792 61.9186 116.654 62.7909 117.717 62.7909Z" fill="#3F3D56"/>
<path d="M134.724 50.1263C135.787 50.1263 136.649 49.254 136.649 48.1779C136.649 47.1019 135.787 46.2296 134.724 46.2296C133.661 46.2296 132.799 47.1019 132.799 48.1779C132.799 49.254 133.661 50.1263 134.724 50.1263Z" fill="#3F3D56"/>
<path d="M151.73 62.7909C152.794 62.7909 153.656 61.9186 153.656 60.8425C153.656 59.7664 152.794 58.8941 151.73 58.8941C150.667 58.8941 149.805 59.7664 149.805 60.8425C149.805 61.9186 150.667 62.7909 151.73 62.7909Z" fill="#3F3D56"/>
<path d="M168.737 43.9564C169.801 43.9564 170.663 43.0841 170.663 42.008C170.663 40.932 169.801 40.0596 168.737 40.0596C167.674 40.0596 166.812 40.932 166.812 42.008C166.812 43.0841 167.674 43.9564 168.737 43.9564Z" fill="#3F3D56"/>
<path d="M185.744 36.8123C186.807 36.8123 187.669 35.94 187.669 34.8639C187.669 33.7879 186.807 32.9155 185.744 32.9155C184.681 32.9155 183.819 33.7879 183.819 34.8639C183.819 35.94 184.681 36.8123 185.744 36.8123Z" fill="#3F3D56"/>
<path d="M151.771 61.279L134.724 48.3571L117.909 61.1025L117.525 60.5825L134.724 47.5455L151.69 60.406L168.55 41.7347L168.617 41.7067L185.624 34.7722L185.864 35.3747L168.925 42.2813L151.771 61.279Z" fill="#3F3D56"/>
<path d="M58.8652 25.8585H29.7412V28.0738H58.8652V25.8585Z" fill="#E6E6E6"/>
<path d="M74.715 32.3619H29.7412V34.5772H74.715V32.3619Z" fill="#6C63FF"/>
<path d="M66.8614 38.5555H30.2087V40.7708H66.8614V38.5555Z" fill="#E6E6E6"/>
<path d="M51.1384 45.3513H29.7412V47.5666H51.1384V45.3513Z" fill="#E6E6E6"/>
<path d="M62.0352 51.9894H29.7412V54.2047H62.0352V51.9894Z" fill="#6C63FF"/>
<path d="M20.033 25.1617H16.4668V28.7707H20.033V25.1617Z" fill="#E6E6E6"/>
<path d="M20.033 31.665H16.4668V35.274H20.033V31.665Z" fill="#6C63FF"/>
<path d="M20.033 37.8586H16.4668V41.4677H20.033V37.8586Z" fill="#E6E6E6"/>
<path d="M20.033 44.6545H16.4668V48.2635H20.033V44.6545Z" fill="#E6E6E6"/>
<path d="M20.033 51.2925H16.4668V54.9016H20.033V51.2925Z" fill="#6C63FF"/>
<path d="M58.8652 58.669H29.7412V60.8843H58.8652V58.669Z" fill="#E6E6E6"/>
<path d="M74.715 65.1724H29.7412V67.3877H74.715V65.1724Z" fill="#6C63FF"/>
<path d="M66.8614 71.366H30.2087V73.5813H66.8614V71.366Z" fill="#E6E6E6"/>
<path d="M51.1384 78.1618H29.7412V80.3771H51.1384V78.1618Z" fill="#E6E6E6"/>
<path d="M62.0352 84.7999H29.7412V87.0152H62.0352V84.7999Z" fill="#E6E6E6"/>
<path d="M20.033 57.9721H16.4668V61.5811H20.033V57.9721Z" fill="#E6E6E6"/>
<path d="M20.033 64.4755H16.4668V68.0845H20.033V64.4755Z" fill="#6C63FF"/>
<path d="M20.033 70.6691H16.4668V74.2781H20.033V70.6691Z" fill="#E6E6E6"/>
<path d="M20.033 77.4649H16.4668V81.074H20.033V77.4649Z" fill="#E6E6E6"/>
<path d="M20.033 84.103H16.4668V87.712H20.033V84.103Z" fill="#E6E6E6"/>
<path d="M266.2 67.9362C267.427 63.9797 270.216 60.3509 274.074 59.0134C277.933 57.6759 284.663 58.9261 286.483 62.6388C289.105 67.9896 287.927 74.5423 286.536 80.352C285.811 80.3132 285.08 80.2826 284.346 80.2548L283.308 76.7534V80.2203C277.58 80.0412 271.617 80.1534 265.65 80.2694C265.116 76.1563 264.973 71.8928 266.2 67.9362Z" fill="#2F2E41"/>
<path d="M318.831 218.699L314.013 220.742L303.931 202.907L311.043 199.891L318.831 218.699Z" fill="#FFB7B7"/>
<path d="M322.017 222.904L306.481 229.493L306.399 229.295C305.727 227.672 305.719 225.845 306.378 224.216C307.037 222.588 308.308 221.291 309.912 220.61L309.912 220.61L319.401 216.586L322.017 222.904Z" fill="#2F2E41"/>
<path d="M248.172 134.449C247.871 134.01 247.669 133.509 247.58 132.981C247.491 132.454 247.518 131.914 247.658 131.398C247.797 130.882 248.047 130.404 248.39 129.997C248.732 129.589 249.158 129.263 249.639 129.04L259.995 97.4154L266.93 101.159L254.57 131.068C254.886 131.909 254.886 132.839 254.57 133.681C254.254 134.522 253.644 135.217 252.855 135.634C252.066 136.051 251.154 136.161 250.291 135.942C249.428 135.724 248.674 135.193 248.172 134.449Z" fill="#FFB7B7"/>
<path d="M260.941 224.369L255.716 224.368L253.231 203.976L260.942 203.976L260.941 224.369Z" fill="#FFB7B7"/>
<path d="M262.273 229.493L245.428 229.493V229.277C245.428 227.517 246.119 225.83 247.349 224.585C248.578 223.341 250.246 222.642 251.985 222.642H251.985L262.274 222.642L262.273 229.493Z" fill="#2F2E41"/>
<path d="M281.887 108.379L283.071 111.494L282.834 114.609L260.106 111.734L260.817 109.098L263.421 105.984L281.887 108.379Z" fill="#FFB7B7"/>
<path d="M274.562 80.3504C279.132 80.3504 282.837 76.6014 282.837 71.9767C282.837 67.352 279.132 63.6029 274.562 63.6029C269.992 63.6029 266.288 67.352 266.288 71.9767C266.288 76.6014 269.992 80.3504 274.562 80.3504Z" fill="#FFB8B8"/>
<path d="M283.196 111.717L260.659 109.291L259.683 106.06C259.379 105.639 256.519 101.536 257.153 97.4344C257.31 96.4682 257.662 95.545 258.187 94.7221C258.711 93.8993 259.397 93.1944 260.202 92.6512L265.682 86.1581L270.503 83.2542L280.006 82.2927L280.039 82.3L288.57 84.2538L288.467 100.081L283.196 111.717Z" fill="#CCCCCC"/>
<path d="M261.227 113.395L254.913 112.636L254.929 112.435C254.987 111.73 256.368 95.1118 257.782 91.295C259.227 87.3961 265.485 86.1815 265.751 86.1318L265.827 86.1176L267.218 86.9619L263.38 99.0989L261.227 113.395Z" fill="#CCCCCC"/>
<path d="M283.071 113.411V118.733C283.071 118.733 289.226 126.828 285.912 133.057C285.912 133.057 293.014 146.474 293.488 151.266L300.117 173.309C300.117 173.309 316.689 190.08 315.269 202.059L316.216 205.893L305.325 210.685L302.958 207.33L284.491 175.225L268.866 145.995L266.025 180.496C266.025 180.496 267.919 207.331 262.711 210.206L262.237 214.518H251.184V210.419C251.184 210.419 247.085 195.83 249.453 184.809L248.506 138.328C248.506 138.328 252.767 118.682 257.976 115.328L259.87 110.536L283.071 113.411Z" fill="#2F2E41"/>
<path d="M275.2 124.414C275.391 124.458 275.578 124.516 275.76 124.589L290.205 114.527L289.874 110.229L296.219 108.876L297.535 116.428C297.642 117.038 297.549 117.666 297.273 118.219C296.996 118.772 296.55 119.218 296.001 119.492L278.107 128.423C278.039 129.183 277.745 129.903 277.262 130.489C276.78 131.076 276.132 131.499 275.406 131.704C274.68 131.908 273.909 131.884 273.197 131.635C272.485 131.385 271.864 130.922 271.418 130.307C270.972 129.692 270.722 128.955 270.7 128.192C270.679 127.43 270.887 126.679 271.298 126.039C271.708 125.399 272.301 124.901 272.998 124.611C273.696 124.321 274.463 124.252 275.2 124.414Z" fill="#FFB7B7"/>
<path d="M290.069 115.083L287.129 95.2328L284.715 84.9788L288.321 84.2162C288.419 84.1793 291.355 83.175 293.726 84.7922C295.432 85.9562 296.377 88.1654 296.535 91.358L297.49 114.071L290.069 115.083Z" fill="#CCCCCC"/>
<path d="M268.877 61.0726C270.467 60.0917 272.288 59.5611 274.15 59.5363C276.011 59.5114 277.846 59.9933 279.461 60.9314C281.075 61.8695 282.412 63.2295 283.329 64.8691C284.247 66.5087 284.713 68.3677 284.678 70.2518C280.052 70.467 275.194 70.5231 270.267 70.5327L269.103 67.6489L268.416 70.5349C266.915 70.5347 265.411 70.5327 263.904 70.5289C263.843 68.6501 264.27 66.788 265.142 65.1285C266.015 63.4691 267.303 62.0705 268.877 61.0726Z" fill="#2F2E41"/>
<path d="M355.588 230H198.485C198.376 230 198.271 229.956 198.194 229.878C198.116 229.8 198.073 229.693 198.073 229.583C198.073 229.472 198.116 229.366 198.194 229.288C198.271 229.209 198.376 229.165 198.485 229.165H355.588C355.697 229.165 355.802 229.209 355.879 229.288C355.957 229.366 356 229.472 356 229.583C356 229.693 355.957 229.8 355.879 229.878C355.802 229.956 355.697 230 355.588 230Z" fill="#CBCBCB"/>
</g>
<defs>
<clipPath id="clip0_109_41">
<rect width="356" height="230" fill="white"/>
</clipPath>
</defs>
</svg>
