<svg width="49" height="74" viewBox="0 0 49 74" fill="none" xmlns="http://www.w3.org/2000/svg">
<path d="M40.3937 40.2113C40.9743 40.0853 41.3203 39.4822 41.0848 38.9368C39.931 36.2643 37.8373 33.9133 35.0484 32.1803C31.9034 30.226 28.0499 29.1667 24.0857 29.1667C20.1214 29.1667 16.268 30.2259 13.1229 32.1802C10.334 33.9133 8.24034 36.2642 7.08651 38.9368C6.85103 39.4822 7.19706 40.0853 7.77764 40.2113L15.6035 41.9094C21.1932 43.1224 26.9781 43.1224 32.5678 41.9095L40.3937 40.2113Z" fill="white"/>
<ellipse cx="24.0857" cy="16.6667" rx="10.0046" ry="10.4167" fill="white"/>
<path d="M0.825639 70V59.0909H5.33203C6.14879 59.0909 6.85369 59.2507 7.44673 59.5703C8.04332 59.8864 8.5032 60.3285 8.82635 60.8967C9.1495 61.4613 9.31108 62.1183 9.31108 62.8675C9.31108 63.6204 9.14595 64.2791 8.8157 64.8438C8.48899 65.4048 8.02202 65.8398 7.41477 66.1488C6.80753 66.4577 6.08665 66.6122 5.25213 66.6122H2.47159V64.5348H4.76207C5.1598 64.5348 5.49183 64.4656 5.75817 64.3271C6.02805 64.1886 6.23224 63.995 6.37074 63.7464C6.50923 63.4943 6.57848 63.2013 6.57848 62.8675C6.57848 62.5302 6.50923 62.239 6.37074 61.994C6.23224 61.7454 6.02805 61.5536 5.75817 61.4187C5.48828 61.2837 5.15625 61.2163 4.76207 61.2163H3.46236V70H0.825639ZM10.6108 70V61.8182H13.141V63.3097H13.2262C13.3754 62.7699 13.6186 62.3686 13.956 62.1058C14.2933 61.8395 14.6857 61.7063 15.1332 61.7063C15.2539 61.7063 15.3782 61.7152 15.506 61.733C15.6339 61.7472 15.7528 61.7702 15.8629 61.8022V64.0661C15.7386 64.0234 15.5753 63.9897 15.3729 63.9648C15.174 63.94 14.9964 63.9276 14.8402 63.9276C14.5313 63.9276 14.2525 63.9968 14.0039 64.1353C13.7589 64.2702 13.5653 64.4602 13.4233 64.7053C13.2848 64.9467 13.2156 65.2308 13.2156 65.5575V70H10.6108ZM20.3187 70.1545C19.4593 70.1545 18.7207 69.9787 18.1028 69.6271C17.4885 69.272 17.0144 68.7784 16.6806 68.1463C16.3503 67.5107 16.1852 66.7738 16.1852 65.9357C16.1852 65.0941 16.3503 64.3572 16.6806 63.7251C17.0144 63.0895 17.4885 62.5959 18.1028 62.2443C18.7207 61.8892 19.4593 61.7116 20.3187 61.7116C21.1781 61.7116 21.915 61.8892 22.5293 62.2443C23.1472 62.5959 23.6213 63.0895 23.9515 63.7251C24.2853 64.3572 24.4522 65.0941 24.4522 65.9357C24.4522 66.7738 24.2853 67.5107 23.9515 68.1463C23.6213 68.7784 23.1472 69.272 22.5293 69.6271C21.915 69.9787 21.1781 70.1545 20.3187 70.1545ZM20.3347 68.1889C20.6472 68.1889 20.9118 68.093 21.1284 67.9013C21.345 67.7095 21.5101 67.4432 21.6238 67.1023C21.7409 66.7614 21.7995 66.3672 21.7995 65.9197C21.7995 65.4652 21.7409 65.0675 21.6238 64.7266C21.5101 64.3857 21.345 64.1193 21.1284 63.9276C20.9118 63.7358 20.6472 63.6399 20.3347 63.6399C20.0115 63.6399 19.7381 63.7358 19.5144 63.9276C19.2942 64.1193 19.1255 64.3857 19.0083 64.7266C18.8947 65.0675 18.8379 65.4652 18.8379 65.9197C18.8379 66.3672 18.8947 66.7614 19.0083 67.1023C19.1255 67.4432 19.2942 67.7095 19.5144 67.9013C19.7381 68.093 20.0115 68.1889 20.3347 68.1889ZM30.4368 61.8182V63.7358H25.174V61.8182H30.4368ZM26.2713 70V61.4027C26.2713 60.7706 26.3903 60.2468 26.6282 59.8313C26.8661 59.4123 27.1964 59.0998 27.619 58.8938C28.0415 58.6843 28.5298 58.5795 29.0838 58.5795C29.446 58.5795 29.7869 58.608 30.1065 58.6648C30.4297 58.718 30.6694 58.766 30.8256 58.8086L30.4102 60.7156C30.3143 60.6836 30.1971 60.657 30.0586 60.6357C29.9237 60.6143 29.7958 60.6037 29.6751 60.6037C29.3697 60.6037 29.1602 60.6712 29.0465 60.8061C28.9329 60.9411 28.8761 61.1257 28.8761 61.3601V70H26.2713ZM31.6899 70V61.8182H34.2947V70H31.6899ZM32.9949 60.8647C32.6292 60.8647 32.3149 60.744 32.0521 60.5025C31.7893 60.2575 31.6579 59.9627 31.6579 59.6183C31.6579 59.2773 31.7893 58.9862 32.0521 58.7447C32.3149 58.4996 32.6292 58.3771 32.9949 58.3771C33.3643 58.3771 33.6785 58.4996 33.9378 58.7447C34.2006 58.9862 34.3319 59.2773 34.3319 59.6183C34.3319 59.9627 34.2006 60.2575 33.9378 60.5025C33.6785 60.744 33.3643 60.8647 32.9949 60.8647ZM38.5574 59.0909V70H35.9526V59.0909H38.5574ZM44.0399 70.1545C43.184 70.1545 42.4454 69.9858 41.824 69.6484C41.2061 69.3075 40.7302 68.8228 40.3964 68.1942C40.0661 67.5621 39.901 66.8111 39.901 65.9411C39.901 65.0959 40.0679 64.3572 40.4017 63.7251C40.7355 63.0895 41.2061 62.5959 41.8133 62.2443C42.4205 61.8892 43.1361 61.7116 43.96 61.7116C44.5423 61.7116 45.075 61.8022 45.558 61.9833C46.0409 62.1644 46.4582 62.4325 46.8097 62.7876C47.1613 63.1428 47.4347 63.5813 47.6301 64.1033C47.8254 64.6218 47.923 65.2166 47.923 65.8878V66.5376H40.8119V65.0249H45.4994C45.4958 64.7479 45.4301 64.5011 45.3023 64.2844C45.1744 64.0678 44.9987 63.8991 44.7749 63.7784C44.5548 63.6541 44.3009 63.592 44.0132 63.592C43.722 63.592 43.461 63.6577 43.2302 63.7891C42.9994 63.9169 42.8165 64.0927 42.6816 64.3164C42.5466 64.5366 42.4756 64.7869 42.4685 65.0675V66.6069C42.4685 66.9407 42.5342 67.2337 42.6656 67.4858C42.797 67.7344 42.9834 67.9279 43.2249 68.0664C43.4664 68.2049 43.754 68.2741 44.0878 68.2741C44.3186 68.2741 44.5281 68.2422 44.7164 68.1783C44.9046 68.1143 45.0661 68.0202 45.2011 67.896C45.336 67.7717 45.4372 67.619 45.5047 67.4379L47.8964 67.5071C47.797 68.0433 47.5786 68.5103 47.2412 68.908C46.9074 69.3022 46.4688 69.6094 45.9255 69.8295C45.3822 70.0462 44.7536 70.1545 44.0399 70.1545Z" fill="white"/>
</svg>
