<svg width="49" height="63" viewBox="0 0 49 63" fill="none" xmlns="http://www.w3.org/2000/svg">
<path d="M37.3777 32.212C37.9673 32.0891 38.3181 31.4744 38.0581 30.9311C37.0784 28.8834 35.375 27.0833 33.1314 25.7442C30.5117 24.1808 27.302 23.3333 24 23.3333C20.698 23.3333 17.4882 24.1808 14.8685 25.7442C12.6249 27.0832 10.9215 28.8834 9.9418 30.9311C9.68186 31.4744 10.0326 32.0891 10.6222 32.212L15.8391 33.2992C21.2218 34.421 26.7781 34.421 32.1608 33.2992L37.3777 32.212Z" fill="white"/>
<circle cx="24" cy="13.3333" r="8.33333" fill="white"/>
<path d="M0.825639 59V48.0909H5.33203C6.14879 48.0909 6.85369 48.2507 7.44673 48.5703C8.04332 48.8864 8.5032 49.3285 8.82635 49.8967C9.1495 50.4613 9.31108 51.1183 9.31108 51.8675C9.31108 52.6204 9.14595 53.2791 8.8157 53.8438C8.48899 54.4048 8.02202 54.8398 7.41477 55.1488C6.80753 55.4577 6.08665 55.6122 5.25213 55.6122H2.47159V53.5348H4.76207C5.1598 53.5348 5.49183 53.4656 5.75817 53.3271C6.02805 53.1886 6.23224 52.995 6.37074 52.7464C6.50923 52.4943 6.57848 52.2013 6.57848 51.8675C6.57848 51.5302 6.50923 51.239 6.37074 50.994C6.23224 50.7454 6.02805 50.5536 5.75817 50.4187C5.48828 50.2837 5.15625 50.2163 4.76207 50.2163H3.46236V59H0.825639ZM10.6108 59V50.8182H13.141V52.3097H13.2262C13.3754 51.7699 13.6186 51.3686 13.956 51.1058C14.2933 50.8395 14.6857 50.7063 15.1332 50.7063C15.2539 50.7063 15.3782 50.7152 15.506 50.733C15.6339 50.7472 15.7528 50.7702 15.8629 50.8022V53.0661C15.7386 53.0234 15.5753 52.9897 15.3729 52.9648C15.174 52.94 14.9964 52.9276 14.8402 52.9276C14.5313 52.9276 14.2525 52.9968 14.0039 53.1353C13.7589 53.2702 13.5653 53.4602 13.4233 53.7053C13.2848 53.9467 13.2156 54.2308 13.2156 54.5575V59H10.6108ZM20.3187 59.1545C19.4593 59.1545 18.7207 58.9787 18.1028 58.6271C17.4885 58.272 17.0144 57.7784 16.6806 57.1463C16.3503 56.5107 16.1852 55.7738 16.1852 54.9357C16.1852 54.0941 16.3503 53.3572 16.6806 52.7251C17.0144 52.0895 17.4885 51.5959 18.1028 51.2443C18.7207 50.8892 19.4593 50.7116 20.3187 50.7116C21.1781 50.7116 21.915 50.8892 22.5293 51.2443C23.1472 51.5959 23.6213 52.0895 23.9515 52.7251C24.2853 53.3572 24.4522 54.0941 24.4522 54.9357C24.4522 55.7738 24.2853 56.5107 23.9515 57.1463C23.6213 57.7784 23.1472 58.272 22.5293 58.6271C21.915 58.9787 21.1781 59.1545 20.3187 59.1545ZM20.3347 57.1889C20.6472 57.1889 20.9118 57.093 21.1284 56.9013C21.345 56.7095 21.5101 56.4432 21.6238 56.1023C21.7409 55.7614 21.7995 55.3672 21.7995 54.9197C21.7995 54.4652 21.7409 54.0675 21.6238 53.7266C21.5101 53.3857 21.345 53.1193 21.1284 52.9276C20.9118 52.7358 20.6472 52.6399 20.3347 52.6399C20.0115 52.6399 19.7381 52.7358 19.5144 52.9276C19.2942 53.1193 19.1255 53.3857 19.0083 53.7266C18.8947 54.0675 18.8379 54.4652 18.8379 54.9197C18.8379 55.3672 18.8947 55.7614 19.0083 56.1023C19.1255 56.4432 19.2942 56.7095 19.5144 56.9013C19.7381 57.093 20.0115 57.1889 20.3347 57.1889ZM30.4368 50.8182V52.7358H25.174V50.8182H30.4368ZM26.2713 59V50.4027C26.2713 49.7706 26.3903 49.2468 26.6282 48.8313C26.8661 48.4123 27.1964 48.0998 27.619 47.8938C28.0415 47.6843 28.5298 47.5795 29.0838 47.5795C29.446 47.5795 29.7869 47.608 30.1065 47.6648C30.4297 47.718 30.6694 47.766 30.8256 47.8086L30.4102 49.7156C30.3143 49.6836 30.1971 49.657 30.0586 49.6357C29.9237 49.6143 29.7958 49.6037 29.6751 49.6037C29.3697 49.6037 29.1602 49.6712 29.0465 49.8061C28.9329 49.9411 28.8761 50.1257 28.8761 50.3601V59H26.2713ZM31.6899 59V50.8182H34.2947V59H31.6899ZM32.9949 49.8647C32.6292 49.8647 32.3149 49.744 32.0521 49.5025C31.7893 49.2575 31.6579 48.9627 31.6579 48.6183C31.6579 48.2773 31.7893 47.9862 32.0521 47.7447C32.3149 47.4996 32.6292 47.3771 32.9949 47.3771C33.3643 47.3771 33.6785 47.4996 33.9378 47.7447C34.2006 47.9862 34.3319 48.2773 34.3319 48.6183C34.3319 48.9627 34.2006 49.2575 33.9378 49.5025C33.6785 49.744 33.3643 49.8647 32.9949 49.8647ZM38.5574 48.0909V59H35.9526V48.0909H38.5574ZM44.0399 59.1545C43.184 59.1545 42.4454 58.9858 41.824 58.6484C41.2061 58.3075 40.7302 57.8228 40.3964 57.1942C40.0661 56.5621 39.901 55.8111 39.901 54.9411C39.901 54.0959 40.0679 53.3572 40.4017 52.7251C40.7355 52.0895 41.2061 51.5959 41.8133 51.2443C42.4205 50.8892 43.1361 50.7116 43.96 50.7116C44.5423 50.7116 45.075 50.8022 45.558 50.9833C46.0409 51.1644 46.4582 51.4325 46.8097 51.7876C47.1613 52.1428 47.4347 52.5813 47.6301 53.1033C47.8254 53.6218 47.923 54.2166 47.923 54.8878V55.5376H40.8119V54.0249H45.4994C45.4958 53.7479 45.4301 53.5011 45.3023 53.2844C45.1744 53.0678 44.9987 52.8991 44.7749 52.7784C44.5548 52.6541 44.3009 52.592 44.0132 52.592C43.722 52.592 43.461 52.6577 43.2302 52.7891C42.9994 52.9169 42.8165 53.0927 42.6816 53.3164C42.5466 53.5366 42.4756 53.7869 42.4685 54.0675V55.6069C42.4685 55.9407 42.5342 56.2337 42.6656 56.4858C42.797 56.7344 42.9834 56.9279 43.2249 57.0664C43.4664 57.2049 43.754 57.2741 44.0878 57.2741C44.3186 57.2741 44.5281 57.2422 44.7164 57.1783C44.9046 57.1143 45.0661 57.0202 45.2011 56.896C45.336 56.7717 45.4372 56.619 45.5047 56.4379L47.8964 56.5071C47.797 57.0433 47.5786 57.5103 47.2412 57.908C46.9074 58.3022 46.4688 58.6094 45.9255 58.8295C45.3822 59.0462 44.7536 59.1545 44.0399 59.1545Z" fill="white"/>
</svg>
