<svg width="70" height="70" viewBox="0 0 70 70" fill="none" xmlns="http://www.w3.org/2000/svg">
<path fill-rule="evenodd" clip-rule="evenodd" d="M36.0833 4.16666V16.75L36.0833 16.8044V16.8045C36.0832 17.2285 36.0832 17.6406 36.1289 17.9805C36.1804 18.3637 36.3059 18.801 36.6691 19.1642C37.0323 19.5274 37.4696 19.6529 37.8528 19.7045C38.1927 19.7502 38.6049 19.7501 39.0289 19.75L39.0833 19.75H51.6667V33.3333C51.6667 39.2259 51.6667 42.1722 49.8361 44.0027C48.0055 45.8333 45.0592 45.8333 39.1667 45.8333H30.8333C24.9408 45.8333 21.9945 45.8333 20.1639 44.0027C18.3333 42.1722 18.3333 39.2259 18.3333 33.3333V16.6667C18.3333 10.7741 18.3333 7.82782 20.1639 5.99724C21.9945 4.16666 24.9408 4.16666 30.8333 4.16666H36.0833ZM38.0833 4.16672V16.75C38.0833 17.2497 38.0855 17.5238 38.111 17.714L38.112 17.7213L38.1193 17.7223C38.3095 17.7479 38.5837 17.75 39.0833 17.75H51.6666C51.6656 16.2345 51.6485 15.4364 51.3495 14.7147C51.0323 13.949 50.4302 13.3468 49.2259 12.1425L43.6908 6.60743C42.4865 5.40314 41.8843 4.80099 41.1186 4.48383C40.3969 4.18487 39.5989 4.1677 38.0833 4.16672Z" fill="white"/>
<path d="M6.7223 58.3615C6.68679 57.9709 6.52876 57.6673 6.24822 57.4506C5.97124 57.2305 5.57528 57.1204 5.06037 57.1204C4.71946 57.1204 4.43537 57.1648 4.2081 57.2536C3.98082 57.3423 3.81037 57.4648 3.69673 57.6211C3.5831 57.7738 3.5245 57.9496 3.52095 58.1484C3.51385 58.3118 3.54581 58.4556 3.61683 58.5799C3.69141 58.7042 3.79794 58.8143 3.93643 58.9102C4.07848 59.0025 4.24893 59.0842 4.4478 59.1552C4.64666 59.2262 4.87038 59.2884 5.11896 59.3416L6.05646 59.5547C6.59624 59.6719 7.07209 59.8281 7.48402 60.0234C7.8995 60.2188 8.24751 60.4513 8.52805 60.7212C8.81215 60.9911 9.02699 61.3018 9.17259 61.6534C9.31818 62.005 9.39276 62.3991 9.39631 62.8359C9.39276 63.5249 9.21875 64.1161 8.87429 64.6097C8.52983 65.1033 8.03445 65.4815 7.38814 65.7443C6.74538 66.0071 5.96946 66.1385 5.06037 66.1385C4.14773 66.1385 3.35227 66.0018 2.67401 65.7283C1.99574 65.4549 1.46839 65.0394 1.09197 64.4819C0.715554 63.9244 0.522017 63.2195 0.511364 62.3672H3.03622C3.05753 62.7188 3.15163 63.0117 3.31854 63.2461C3.48544 63.4805 3.71449 63.658 4.00568 63.7788C4.30043 63.8995 4.64134 63.9599 5.02841 63.9599C5.38352 63.9599 5.68537 63.9119 5.93395 63.8161C6.18608 63.7202 6.37962 63.587 6.51456 63.4165C6.6495 63.2461 6.71875 63.0508 6.7223 62.8306C6.71875 62.6246 6.65483 62.4489 6.53054 62.3033C6.40625 62.1541 6.21449 62.0263 5.95526 61.9197C5.69957 61.8097 5.37287 61.7085 4.97514 61.6161L3.83523 61.3498C2.89062 61.1332 2.14666 60.7834 1.60334 60.3004C1.06001 59.8139 0.790128 59.157 0.793679 58.3295C0.790128 57.6548 0.971236 57.0636 1.337 56.5558C1.70277 56.0479 2.20881 55.652 2.85511 55.3679C3.50142 55.0838 4.23828 54.9418 5.0657 54.9418C5.91087 54.9418 6.64418 55.0856 7.26562 55.3732C7.89062 55.6573 8.37536 56.0568 8.71982 56.5717C9.06428 57.0866 9.24006 57.6832 9.24716 58.3615H6.7223ZM14.5526 66.1545C13.6967 66.1545 12.9581 65.9858 12.3366 65.6484C11.7188 65.3075 11.2429 64.8228 10.9091 64.1942C10.5788 63.5621 10.4137 62.8111 10.4137 61.9411C10.4137 61.0959 10.5806 60.3572 10.9144 59.7251C11.2482 59.0895 11.7188 58.5959 12.326 58.2443C12.9332 57.8892 13.6488 57.7116 14.4727 57.7116C15.055 57.7116 15.5877 57.8022 16.0707 57.9833C16.5536 58.1644 16.9709 58.4325 17.3224 58.7876C17.674 59.1428 17.9474 59.5813 18.1428 60.1033C18.3381 60.6218 18.4357 61.2166 18.4357 61.8878V62.5376H11.3246V61.0249H16.0121C16.0085 60.7479 15.9428 60.5011 15.815 60.2844C15.6871 60.0678 15.5114 59.8991 15.2876 59.7784C15.0675 59.6541 14.8136 59.592 14.5259 59.592C14.2347 59.592 13.9737 59.6577 13.7429 59.7891C13.5121 59.9169 13.3292 60.0927 13.1942 60.3164C13.0593 60.5366 12.9883 60.7869 12.9812 61.0675V62.6069C12.9812 62.9407 13.0469 63.2337 13.1783 63.4858C13.3097 63.7344 13.4961 63.9279 13.7376 64.0664C13.979 64.2049 14.2667 64.2741 14.6005 64.2741C14.8313 64.2741 15.0408 64.2422 15.229 64.1783C15.4173 64.1143 15.5788 64.0202 15.7138 63.896C15.8487 63.7717 15.9499 63.619 16.0174 63.4379L18.4091 63.5071C18.3097 64.0433 18.0913 64.5103 17.7539 64.908C17.4201 65.3022 16.9815 65.6094 16.4382 65.8295C15.8949 66.0462 15.2663 66.1545 14.5526 66.1545ZM19.7661 66V57.8182H22.2963V59.3097H22.3815C22.5306 58.7699 22.7739 58.3686 23.1112 58.1058C23.4486 57.8395 23.841 57.7063 24.2884 57.7063C24.4092 57.7063 24.5335 57.7152 24.6613 57.733C24.7892 57.7472 24.9081 57.7702 25.0182 57.8022V60.0661C24.8939 60.0234 24.7306 59.9897 24.5281 59.9648C24.3293 59.94 24.1517 59.9276 23.9955 59.9276C23.6865 59.9276 23.4078 59.9968 23.1592 60.1353C22.9142 60.2702 22.7206 60.4602 22.5786 60.7053C22.4401 60.9467 22.3708 61.2308 22.3708 61.5575V66H19.7661ZM31.0787 57.8182V59.7358H25.9171V57.8182H31.0787ZM26.9984 55.858H29.6032V63.4272C29.6032 63.587 29.628 63.7166 29.6777 63.8161C29.731 63.9119 29.8074 63.9812 29.9068 64.0238C30.0062 64.0629 30.1252 64.0824 30.2637 64.0824C30.3631 64.0824 30.4679 64.0735 30.5779 64.0558C30.6916 64.0344 30.7768 64.0167 30.8336 64.0025L31.2278 65.8828C31.1035 65.9183 30.9277 65.9627 30.7005 66.016C30.4767 66.0692 30.2086 66.103 29.8961 66.1172C29.2853 66.1456 28.7615 66.0746 28.3248 65.9041C27.8915 65.7301 27.5595 65.4602 27.3287 65.0945C27.1014 64.7287 26.9913 64.2688 26.9984 63.7148V55.858ZM32.4077 66V57.8182H35.0124V66H32.4077ZM33.7127 56.8647C33.3469 56.8647 33.0327 56.744 32.7699 56.5025C32.5071 56.2575 32.3757 55.9627 32.3757 55.6183C32.3757 55.2773 32.5071 54.9862 32.7699 54.7447C33.0327 54.4996 33.3469 54.3771 33.7127 54.3771C34.082 54.3771 34.3963 54.4996 34.6555 54.7447C34.9183 54.9862 35.0497 55.2773 35.0497 55.6183C35.0497 55.9627 34.9183 56.2575 34.6555 56.5025C34.3963 56.744 34.082 56.8647 33.7127 56.8647ZM41.3206 57.8182V59.7358H36.0578V57.8182H41.3206ZM37.1551 66V57.4027C37.1551 56.7706 37.2741 56.2468 37.512 55.8313C37.7499 55.4123 38.0802 55.0998 38.5028 54.8938C38.9253 54.6843 39.4136 54.5795 39.9676 54.5795C40.3298 54.5795 40.6707 54.608 40.9903 54.6648C41.3135 54.718 41.5532 54.766 41.7094 54.8086L41.2939 56.7156C41.1981 56.6836 41.0809 56.657 40.9424 56.6357C40.8074 56.6143 40.6796 56.6037 40.5589 56.6037C40.2535 56.6037 40.0439 56.6712 39.9303 56.8061C39.8167 56.9411 39.7599 57.1257 39.7599 57.3601V66H37.1551ZM42.5737 66V57.8182H45.1784V66H42.5737ZM43.8787 56.8647C43.513 56.8647 43.1987 56.744 42.9359 56.5025C42.6731 56.2575 42.5417 55.9627 42.5417 55.6183C42.5417 55.2773 42.6731 54.9862 42.9359 54.7447C43.1987 54.4996 43.513 54.3771 43.8787 54.3771C44.248 54.3771 44.5623 54.4996 44.8216 54.7447C45.0843 54.9862 45.2157 55.2773 45.2157 55.6183C45.2157 55.9627 45.0843 56.2575 44.8216 56.5025C44.5623 56.744 44.248 56.8647 43.8787 56.8647ZM49.1855 63.8533L49.1961 60.7479H49.5583L51.8595 57.8182H54.8105L51.3907 62.0156H50.7036L49.1855 63.8533ZM46.8364 66V55.0909H49.4411V66H46.8364ZM51.9181 66L49.7767 62.6016L51.4919 60.7532L54.9276 66H51.9181ZM58.0491 66.1385C57.5271 66.1385 57.0637 66.0515 56.6588 65.8775C56.2575 65.6999 55.9397 65.4336 55.7053 65.0785C55.4745 64.7198 55.3591 64.2706 55.3591 63.7308C55.3591 63.2763 55.439 62.8928 55.5988 62.5803C55.7586 62.2678 55.9788 62.0138 56.2593 61.8185C56.5399 61.6232 56.863 61.4759 57.2288 61.3764C57.5945 61.2734 57.9852 61.2042 58.4007 61.1687C58.8659 61.1261 59.2405 61.0817 59.5246 61.0355C59.8087 60.9858 60.0146 60.9165 60.1425 60.8278C60.2739 60.7354 60.3396 60.6058 60.3396 60.4389V60.4123C60.3396 60.1388 60.2455 59.9276 60.0573 59.7784C59.8691 59.6293 59.6151 59.5547 59.2955 59.5547C58.9511 59.5547 58.6741 59.6293 58.4646 59.7784C58.2551 59.9276 58.1219 60.1335 58.0651 60.3963L55.6627 60.3111C55.7338 59.8139 55.9166 59.37 56.2114 58.9794C56.5097 58.5852 56.9181 58.2763 57.4365 58.0526C57.9585 57.8253 58.5853 57.7116 59.3169 57.7116C59.8389 57.7116 60.32 57.7738 60.7604 57.8981C61.2007 58.0188 61.5843 58.1964 61.911 58.4308C62.2377 58.6616 62.4898 58.9457 62.6673 59.283C62.8485 59.6204 62.939 60.0057 62.939 60.4389V66H60.4887V64.8601H60.4248C60.2792 65.1371 60.0928 65.3714 59.8655 65.5632C59.6418 65.755 59.3772 65.8988 59.0718 65.9947C58.77 66.0906 58.4291 66.1385 58.0491 66.1385ZM58.8534 64.4339C59.134 64.4339 59.3861 64.3771 59.6098 64.2635C59.8371 64.1499 60.0182 63.9936 60.1531 63.7947C60.2881 63.5923 60.3556 63.358 60.3556 63.0916V62.3139C60.281 62.353 60.1904 62.3885 60.0839 62.4205C59.9809 62.4524 59.8673 62.4826 59.743 62.511C59.6187 62.5394 59.4909 62.5643 59.3595 62.5856C59.2281 62.6069 59.102 62.6264 58.9813 62.6442C58.7362 62.6832 58.5267 62.7436 58.3527 62.8253C58.1823 62.907 58.0509 63.0135 57.9585 63.1449C57.8698 63.2727 57.8254 63.4254 57.8254 63.603C57.8254 63.8729 57.9213 64.0788 58.113 64.2209C58.3083 64.3629 58.5551 64.4339 58.8534 64.4339ZM69.1499 57.8182V59.7358H63.9884V57.8182H69.1499ZM65.0697 55.858H67.6744V63.4272C67.6744 63.587 67.6993 63.7166 67.749 63.8161C67.8023 63.9119 67.8786 63.9812 67.9781 64.0238C68.0775 64.0629 68.1965 64.0824 68.335 64.0824C68.4344 64.0824 68.5392 64.0735 68.6492 64.0558C68.7629 64.0344 68.8481 64.0167 68.9049 64.0025L69.2991 65.8828C69.1748 65.9183 68.999 65.9627 68.7718 66.016C68.548 66.0692 68.2799 66.103 67.9674 66.1172C67.3566 66.1456 66.8328 66.0746 66.396 65.9041C65.9628 65.7301 65.6308 65.4602 65.3999 65.0945C65.1727 64.7287 65.0626 64.2688 65.0697 63.7148V55.858Z" fill="white"/>
</svg>
