<svg width="70" height="63" viewBox="0 0 70 63" fill="none" xmlns="http://www.w3.org/2000/svg">
<path d="M6.7223 51.3615C6.68679 50.9709 6.52876 50.6673 6.24822 50.4506C5.97124 50.2305 5.57528 50.1204 5.06037 50.1204C4.71946 50.1204 4.43537 50.1648 4.2081 50.2536C3.98082 50.3423 3.81037 50.4648 3.69673 50.6211C3.5831 50.7738 3.5245 50.9496 3.52095 51.1484C3.51385 51.3118 3.54581 51.4556 3.61683 51.5799C3.69141 51.7042 3.79794 51.8143 3.93643 51.9102C4.07848 52.0025 4.24893 52.0842 4.4478 52.1552C4.64666 52.2262 4.87038 52.2884 5.11896 52.3416L6.05646 52.5547C6.59624 52.6719 7.07209 52.8281 7.48402 53.0234C7.8995 53.2188 8.24751 53.4513 8.52805 53.7212C8.81215 53.9911 9.02699 54.3018 9.17259 54.6534C9.31818 55.005 9.39276 55.3991 9.39631 55.8359C9.39276 56.5249 9.21875 57.1161 8.87429 57.6097C8.52983 58.1033 8.03445 58.4815 7.38814 58.7443C6.74538 59.0071 5.96946 59.1385 5.06037 59.1385C4.14773 59.1385 3.35227 59.0018 2.67401 58.7283C1.99574 58.4549 1.46839 58.0394 1.09197 57.4819C0.715554 56.9244 0.522017 56.2195 0.511364 55.3672H3.03622C3.05753 55.7188 3.15163 56.0117 3.31854 56.2461C3.48544 56.4805 3.71449 56.658 4.00568 56.7788C4.30043 56.8995 4.64134 56.9599 5.02841 56.9599C5.38352 56.9599 5.68537 56.9119 5.93395 56.8161C6.18608 56.7202 6.37962 56.587 6.51456 56.4165C6.6495 56.2461 6.71875 56.0508 6.7223 55.8306C6.71875 55.6246 6.65483 55.4489 6.53054 55.3033C6.40625 55.1541 6.21449 55.0263 5.95526 54.9197C5.69957 54.8097 5.37287 54.7085 4.97514 54.6161L3.83523 54.3498C2.89062 54.1332 2.14666 53.7834 1.60334 53.3004C1.06001 52.8139 0.790128 52.157 0.793679 51.3295C0.790128 50.6548 0.971236 50.0636 1.337 49.5558C1.70277 49.0479 2.20881 48.652 2.85511 48.3679C3.50142 48.0838 4.23828 47.9418 5.0657 47.9418C5.91087 47.9418 6.64418 48.0856 7.26562 48.3732C7.89062 48.6573 8.37536 49.0568 8.71982 49.5717C9.06428 50.0866 9.24006 50.6832 9.24716 51.3615H6.7223ZM14.5526 59.1545C13.6967 59.1545 12.9581 58.9858 12.3366 58.6484C11.7188 58.3075 11.2429 57.8228 10.9091 57.1942C10.5788 56.5621 10.4137 55.8111 10.4137 54.9411C10.4137 54.0959 10.5806 53.3572 10.9144 52.7251C11.2482 52.0895 11.7188 51.5959 12.326 51.2443C12.9332 50.8892 13.6488 50.7116 14.4727 50.7116C15.055 50.7116 15.5877 50.8022 16.0707 50.9833C16.5536 51.1644 16.9709 51.4325 17.3224 51.7876C17.674 52.1428 17.9474 52.5813 18.1428 53.1033C18.3381 53.6218 18.4357 54.2166 18.4357 54.8878V55.5376H11.3246V54.0249H16.0121C16.0085 53.7479 15.9428 53.5011 15.815 53.2844C15.6871 53.0678 15.5114 52.8991 15.2876 52.7784C15.0675 52.6541 14.8136 52.592 14.5259 52.592C14.2347 52.592 13.9737 52.6577 13.7429 52.7891C13.5121 52.9169 13.3292 53.0927 13.1942 53.3164C13.0593 53.5366 12.9883 53.7869 12.9812 54.0675V55.6069C12.9812 55.9407 13.0469 56.2337 13.1783 56.4858C13.3097 56.7344 13.4961 56.9279 13.7376 57.0664C13.979 57.2049 14.2667 57.2741 14.6005 57.2741C14.8313 57.2741 15.0408 57.2422 15.229 57.1783C15.4173 57.1143 15.5788 57.0202 15.7138 56.896C15.8487 56.7717 15.9499 56.619 16.0174 56.4379L18.4091 56.5071C18.3097 57.0433 18.0913 57.5103 17.7539 57.908C17.4201 58.3022 16.9815 58.6094 16.4382 58.8295C15.8949 59.0462 15.2663 59.1545 14.5526 59.1545ZM19.7661 59V50.8182H22.2963V52.3097H22.3815C22.5306 51.7699 22.7739 51.3686 23.1112 51.1058C23.4486 50.8395 23.841 50.7063 24.2884 50.7063C24.4092 50.7063 24.5335 50.7152 24.6613 50.733C24.7892 50.7472 24.9081 50.7702 25.0182 50.8022V53.0661C24.8939 53.0234 24.7306 52.9897 24.5281 52.9648C24.3293 52.94 24.1517 52.9276 23.9955 52.9276C23.6865 52.9276 23.4078 52.9968 23.1592 53.1353C22.9142 53.2702 22.7206 53.4602 22.5786 53.7053C22.4401 53.9467 22.3708 54.2308 22.3708 54.5575V59H19.7661ZM31.0787 50.8182V52.7358H25.9171V50.8182H31.0787ZM26.9984 48.858H29.6032V56.4272C29.6032 56.587 29.628 56.7166 29.6777 56.8161C29.731 56.9119 29.8074 56.9812 29.9068 57.0238C30.0062 57.0629 30.1252 57.0824 30.2637 57.0824C30.3631 57.0824 30.4679 57.0735 30.5779 57.0558C30.6916 57.0344 30.7768 57.0167 30.8336 57.0025L31.2278 58.8828C31.1035 58.9183 30.9277 58.9627 30.7005 59.016C30.4767 59.0692 30.2086 59.103 29.8961 59.1172C29.2853 59.1456 28.7615 59.0746 28.3248 58.9041C27.8915 58.7301 27.5595 58.4602 27.3287 58.0945C27.1014 57.7287 26.9913 57.2688 26.9984 56.7148V48.858ZM32.4077 59V50.8182H35.0124V59H32.4077ZM33.7127 49.8647C33.3469 49.8647 33.0327 49.744 32.7699 49.5025C32.5071 49.2575 32.3757 48.9627 32.3757 48.6183C32.3757 48.2773 32.5071 47.9862 32.7699 47.7447C33.0327 47.4996 33.3469 47.3771 33.7127 47.3771C34.082 47.3771 34.3963 47.4996 34.6555 47.7447C34.9183 47.9862 35.0497 48.2773 35.0497 48.6183C35.0497 48.9627 34.9183 49.2575 34.6555 49.5025C34.3963 49.744 34.082 49.8647 33.7127 49.8647ZM41.3206 50.8182V52.7358H36.0578V50.8182H41.3206ZM37.1551 59V50.4027C37.1551 49.7706 37.2741 49.2468 37.512 48.8313C37.7499 48.4123 38.0802 48.0998 38.5028 47.8938C38.9253 47.6843 39.4136 47.5795 39.9676 47.5795C40.3298 47.5795 40.6707 47.608 40.9903 47.6648C41.3135 47.718 41.5532 47.766 41.7094 47.8086L41.2939 49.7156C41.1981 49.6836 41.0809 49.657 40.9424 49.6357C40.8074 49.6143 40.6796 49.6037 40.5589 49.6037C40.2535 49.6037 40.0439 49.6712 39.9303 49.8061C39.8167 49.9411 39.7599 50.1257 39.7599 50.3601V59H37.1551ZM42.5737 59V50.8182H45.1784V59H42.5737ZM43.8787 49.8647C43.513 49.8647 43.1987 49.744 42.9359 49.5025C42.6731 49.2575 42.5417 48.9627 42.5417 48.6183C42.5417 48.2773 42.6731 47.9862 42.9359 47.7447C43.1987 47.4996 43.513 47.3771 43.8787 47.3771C44.248 47.3771 44.5623 47.4996 44.8216 47.7447C45.0843 47.9862 45.2157 48.2773 45.2157 48.6183C45.2157 48.9627 45.0843 49.2575 44.8216 49.5025C44.5623 49.744 44.248 49.8647 43.8787 49.8647ZM49.1855 56.8533L49.1961 53.7479H49.5583L51.8595 50.8182H54.8105L51.3907 55.0156H50.7036L49.1855 56.8533ZM46.8364 59V48.0909H49.4411V59H46.8364ZM51.9181 59L49.7767 55.6016L51.4919 53.7532L54.9276 59H51.9181ZM58.0491 59.1385C57.5271 59.1385 57.0637 59.0515 56.6588 58.8775C56.2575 58.6999 55.9397 58.4336 55.7053 58.0785C55.4745 57.7198 55.3591 57.2706 55.3591 56.7308C55.3591 56.2763 55.439 55.8928 55.5988 55.5803C55.7586 55.2678 55.9788 55.0138 56.2593 54.8185C56.5399 54.6232 56.863 54.4759 57.2288 54.3764C57.5945 54.2734 57.9852 54.2042 58.4007 54.1687C58.8659 54.1261 59.2405 54.0817 59.5246 54.0355C59.8087 53.9858 60.0146 53.9165 60.1425 53.8278C60.2739 53.7354 60.3396 53.6058 60.3396 53.4389V53.4123C60.3396 53.1388 60.2455 52.9276 60.0573 52.7784C59.8691 52.6293 59.6151 52.5547 59.2955 52.5547C58.9511 52.5547 58.6741 52.6293 58.4646 52.7784C58.2551 52.9276 58.1219 53.1335 58.0651 53.3963L55.6627 53.3111C55.7338 52.8139 55.9166 52.37 56.2114 51.9794C56.5097 51.5852 56.9181 51.2763 57.4365 51.0526C57.9585 50.8253 58.5853 50.7116 59.3169 50.7116C59.8389 50.7116 60.32 50.7738 60.7604 50.8981C61.2007 51.0188 61.5843 51.1964 61.911 51.4308C62.2377 51.6616 62.4898 51.9457 62.6673 52.283C62.8485 52.6204 62.939 53.0057 62.939 53.4389V59H60.4887V57.8601H60.4248C60.2792 58.1371 60.0928 58.3714 59.8655 58.5632C59.6418 58.755 59.3772 58.8988 59.0718 58.9947C58.77 59.0906 58.4291 59.1385 58.0491 59.1385ZM58.8534 57.4339C59.134 57.4339 59.3861 57.3771 59.6098 57.2635C59.8371 57.1499 60.0182 56.9936 60.1531 56.7947C60.2881 56.5923 60.3556 56.358 60.3556 56.0916V55.3139C60.281 55.353 60.1904 55.3885 60.0839 55.4205C59.9809 55.4524 59.8673 55.4826 59.743 55.511C59.6187 55.5394 59.4909 55.5643 59.3595 55.5856C59.2281 55.6069 59.102 55.6264 58.9813 55.6442C58.7362 55.6832 58.5267 55.7436 58.3527 55.8253C58.1823 55.907 58.0509 56.0135 57.9585 56.1449C57.8698 56.2727 57.8254 56.4254 57.8254 56.603C57.8254 56.8729 57.9213 57.0788 58.113 57.2209C58.3083 57.3629 58.5551 57.4339 58.8534 57.4339ZM69.1499 50.8182V52.7358H63.9884V50.8182H69.1499ZM65.0697 48.858H67.6744V56.4272C67.6744 56.587 67.6993 56.7166 67.749 56.8161C67.8023 56.9119 67.8786 56.9812 67.9781 57.0238C68.0775 57.0629 68.1965 57.0824 68.335 57.0824C68.4344 57.0824 68.5392 57.0735 68.6492 57.0558C68.7629 57.0344 68.8481 57.0167 68.9049 57.0025L69.2991 58.8828C69.1748 58.9183 68.999 58.9627 68.7718 59.016C68.548 59.0692 68.2799 59.103 67.9674 59.1172C67.3566 59.1456 66.8328 59.0746 66.396 58.9041C65.9628 58.7301 65.6308 58.4602 65.3999 58.0945C65.1727 57.7287 65.0626 57.2688 65.0697 56.7148V48.858Z" fill="white"/>
<path fill-rule="evenodd" clip-rule="evenodd" d="M42.6667 3.33334V13L42.6666 13.0544V13.0544C42.6666 13.4785 42.6665 13.8906 42.7122 14.2305C42.7637 14.6137 42.8892 15.051 43.2524 15.4142C43.6157 15.7774 44.0529 15.903 44.4361 15.9545C44.7761 16.0002 45.1882 16.0001 45.6122 16L45.6667 16H55.3333V26.6667C55.3333 31.3807 55.3333 33.7377 53.8689 35.2022C52.4044 36.6667 50.0474 36.6667 45.3333 36.6667H38.6667C33.9526 36.6667 31.5956 36.6667 30.1311 35.2022C28.6667 33.7377 28.6667 31.3807 28.6667 26.6667V13.3333C28.6667 8.6193 28.6667 6.26228 30.1311 4.79781C31.5956 3.33334 33.9526 3.33334 38.6667 3.33334H42.6667ZM44.6667 3.33369V13C44.6667 13.4997 44.6688 13.7738 44.6944 13.964L44.6953 13.9713L44.7026 13.9723C44.8928 13.9979 45.167 14 45.6667 14H55.333C55.3302 12.9157 55.3052 12.3166 55.0796 11.7718C54.8259 11.1592 54.3441 10.6775 53.3807 9.71406L48.9526 5.28597C47.9892 4.32253 47.5075 3.84081 46.8949 3.58708C46.3501 3.36142 45.751 3.33645 44.6667 3.33369Z" fill="white"/>
</svg>
